<svg width="579" height="199" viewBox="0 0 579 199" fill="none" xmlns="http://www.w3.org/2000/svg">
<g clip-path="url(#clip0_227_148)">
<path d="M237.64 125V69H255.24C260.733 69 265.587 70.2 269.8 72.6C274.067 74.9467 277.4 78.2267 279.8 82.44C282.253 86.6533 283.48 91.5067 283.48 97C283.48 102.44 282.253 107.267 279.8 111.48C277.4 115.693 274.067 119 269.8 121.4C265.587 123.8 260.733 125 255.24 125H237.64ZM246.92 116.36H255.24C257.853 116.36 260.307 115.88 262.6 114.92C264.893 113.907 266.893 112.52 268.6 110.76C270.307 109 271.64 106.947 272.6 104.6C273.56 102.253 274.04 99.72 274.04 97C274.04 94.28 273.56 91.7467 272.6 89.4C271.64 87.0533 270.307 85 268.6 83.24C266.893 81.48 264.893 80.12 262.6 79.16C260.307 78.1467 257.853 77.64 255.24 77.64H246.92V116.36ZM290.545 125V85H299.425V125H290.545ZM295.025 77.4C293.585 77.4 292.332 76.8933 291.265 75.88C290.252 74.8133 289.745 73.56 289.745 72.12C289.745 70.68 290.252 69.4533 291.265 68.44C292.332 67.4267 293.585 66.92 295.025 66.92C296.465 66.92 297.692 67.4267 298.705 68.44C299.772 69.4533 300.305 70.68 300.305 72.12C300.305 73.56 299.772 74.8133 298.705 75.88C297.692 76.8933 296.465 77.4 295.025 77.4ZM322.945 125.96C320.278 125.96 317.825 125.56 315.585 124.76C313.345 123.96 311.425 122.84 309.825 121.4C308.225 119.907 306.998 118.173 306.145 116.2L313.905 112.76C314.705 114.253 315.878 115.507 317.425 116.52C319.025 117.533 320.785 118.04 322.705 118.04C324.785 118.04 326.438 117.693 327.665 117C328.945 116.253 329.585 115.24 329.585 113.96C329.585 112.733 329.105 111.8 328.145 111.16C327.185 110.467 325.825 109.907 324.065 109.48L320.305 108.44C316.518 107.48 313.558 105.96 311.425 103.88C309.292 101.747 308.225 99.32 308.225 96.6C308.225 92.6 309.505 89.5067 312.065 87.32C314.678 85.1333 318.412 84.04 323.265 84.04C325.718 84.04 327.958 84.4133 329.985 85.16C332.065 85.8533 333.852 86.8667 335.345 88.2C336.838 89.48 337.878 91 338.465 92.76L331.025 96.12C330.492 94.7867 329.478 93.7733 327.985 93.08C326.492 92.3333 324.838 91.96 323.025 91.96C321.212 91.96 319.798 92.36 318.785 93.16C317.772 93.9067 317.265 94.9733 317.265 96.36C317.265 97.16 317.718 97.9067 318.625 98.6C319.532 99.24 320.838 99.7733 322.545 100.2L327.265 101.32C329.878 101.96 332.012 102.973 333.665 104.36C335.318 105.693 336.545 107.213 337.345 108.92C338.145 110.573 338.545 112.253 338.545 113.96C338.545 116.36 337.852 118.467 336.465 120.28C335.132 122.093 333.292 123.507 330.945 124.52C328.598 125.48 325.932 125.96 322.945 125.96ZM362.771 125.96C358.664 125.96 355.037 125.08 351.891 123.32C348.744 121.507 346.264 119.027 344.451 115.88C342.691 112.733 341.811 109.107 341.811 105C341.811 100.893 342.691 97.2667 344.451 94.12C346.264 90.9733 348.717 88.52 351.811 86.76C354.957 84.9467 358.557 84.04 362.611 84.04C366.557 84.04 370.131 85 373.331 86.92C376.531 88.7867 378.904 91.48 380.451 95L372.131 98.2C371.277 96.44 369.971 95.0267 368.211 93.96C366.451 92.8933 364.451 92.36 362.211 92.36C360.024 92.36 358.077 92.92 356.371 94.04C354.664 95.1067 353.331 96.6 352.371 98.52C351.411 100.387 350.931 102.547 350.931 105C350.931 107.453 351.411 109.64 352.371 111.56C353.384 113.427 354.744 114.92 356.451 116.04C358.211 117.107 360.184 117.64 362.371 117.64C364.611 117.64 366.611 117.08 368.371 115.96C370.131 114.787 371.437 113.213 372.291 111.24L380.611 114.44C379.064 118.067 376.691 120.893 373.491 122.92C370.344 124.947 366.771 125.96 362.771 125.96ZM404.366 125.96C400.366 125.96 396.793 125.08 393.646 123.32C390.553 121.507 388.126 119.027 386.366 115.88C384.606 112.733 383.726 109.107 383.726 105C383.726 100.893 384.58 97.2667 386.286 94.12C388.046 90.9733 390.473 88.52 393.566 86.76C396.66 84.9467 400.206 84.04 404.206 84.04C408.206 84.04 411.753 84.9467 414.846 86.76C417.94 88.52 420.34 90.9733 422.046 94.12C423.806 97.2667 424.686 100.893 424.686 105C424.686 109.107 423.833 112.733 422.126 115.88C420.42 119.027 418.02 121.507 414.926 123.32C411.833 125.08 408.313 125.96 404.366 125.96ZM404.366 117.72C406.553 117.72 408.5 117.187 410.206 116.12C411.913 115 413.246 113.507 414.206 111.64C415.166 109.72 415.646 107.507 415.646 105C415.646 102.493 415.14 100.307 414.126 98.44C413.166 96.52 411.833 95.0267 410.126 93.96C408.42 92.84 406.446 92.28 404.206 92.28C401.966 92.28 399.993 92.8133 398.286 93.88C396.58 94.9467 395.246 96.44 394.286 98.36C393.326 100.28 392.846 102.493 392.846 105C392.846 107.507 393.326 109.72 394.286 111.64C395.3 113.507 396.66 115 398.366 116.12C400.126 117.187 402.126 117.72 404.366 117.72ZM442.246 125L457.846 85H467.126L450.646 125H442.246ZM441.606 125L425.046 85H434.246L449.926 125H441.606ZM487.872 125.96C483.979 125.96 480.512 125.08 477.472 123.32C474.485 121.507 472.112 119.027 470.352 115.88C468.645 112.733 467.792 109.107 467.792 105C467.792 100.893 468.672 97.2667 470.432 94.12C472.192 90.9733 474.592 88.52 477.632 86.76C480.725 84.9467 484.245 84.04 488.192 84.04C491.765 84.04 494.992 84.9733 497.872 86.84C500.752 88.6533 503.019 91.2933 504.672 94.76C506.379 98.2267 507.232 102.36 507.232 107.16H475.792L476.992 106.04C476.992 108.493 477.525 110.627 478.592 112.44C479.659 114.2 481.072 115.56 482.832 116.52C484.592 117.48 486.539 117.96 488.672 117.96C491.125 117.96 493.152 117.427 494.752 116.36C496.352 115.24 497.605 113.8 498.512 112.04L506.432 115.4C505.312 117.533 503.872 119.4 502.112 121C500.405 122.6 498.352 123.827 495.952 124.68C493.605 125.533 490.912 125.96 487.872 125.96ZM477.552 101.4L476.272 100.28H498.832L497.632 101.4C497.632 99.2133 497.152 97.4267 496.192 96.04C495.232 94.6 494.005 93.5333 492.512 92.84C491.072 92.0933 489.552 91.72 487.952 91.72C486.352 91.72 484.752 92.0933 483.152 92.84C481.552 93.5333 480.219 94.6 479.152 96.04C478.085 97.4267 477.552 99.2133 477.552 101.4ZM518.414 103.72C518.414 99.4 519.241 95.8533 520.894 93.08C522.548 90.3067 524.681 88.2533 527.294 86.92C529.961 85.5333 532.734 84.84 535.614 84.84V93.4C533.161 93.4 530.841 93.7467 528.654 94.44C526.521 95.08 524.788 96.1467 523.454 97.64C522.121 99.1333 521.454 101.107 521.454 103.56L518.414 103.72ZM512.494 125V85H521.454V125H512.494ZM546.277 141.96C544.997 141.96 543.557 141.72 541.957 141.24C540.41 140.76 538.917 140.147 537.477 139.4L540.837 132.12C541.85 132.6 542.784 132.973 543.637 133.24C544.49 133.56 545.184 133.72 545.717 133.72C546.997 133.72 548.064 133.373 548.917 132.68C549.824 132.04 550.544 131.08 551.077 129.8L555.797 118.76L569.317 85H579.077L560.517 129.24C559.397 131.8 558.25 134.04 557.077 135.96C555.957 137.88 554.544 139.347 552.837 140.36C551.13 141.427 548.944 141.96 546.277 141.96ZM553.397 125L535.477 85H545.237L559.157 118.68L562.037 125H553.397Z" fill="#234363"/>
<path d="M96.6429 0.690605C95.7 1.27075 92.8286 4.107 78.3429 18.6965C71.85 25.25 65.1 32.0183 63.3429 33.7372C53.1214 43.8145 49.5 47.4888 49.5 47.8111C49.5 48.0045 49.7357 48.5201 50.0143 48.9714C50.6143 49.8953 68.6786 67.9871 69.3643 68.3309C69.9857 68.6532 70.3286 68.3524 77.0357 61.4767C80.1 58.3611 90.3214 48.0259 99.75 38.5503C109.179 29.0531 117.064 20.9526 117.279 20.5444C117.664 19.8138 117.664 19.7709 117.279 19.1477C116.679 18.2023 100.157 1.5071 99.1286 0.841011C98.0786 0.13195 97.6286 0.088974 96.6429 0.690605Z" fill="#234363"/>
<path d="M47.1215 0.948372C46.2429 1.55 46.5 1.31365 36.15 11.6058C31.5857 16.161 27.8572 19.9427 27.8572 20.0501C27.8572 20.2435 31.4786 24.1541 33.9215 26.5821C34.8857 27.5275 38.2286 30.9009 41.3357 34.038C44.4643 37.1965 47.1857 39.8179 47.4 39.9039C47.6143 39.9683 48.0857 39.8394 48.45 39.6031C49.5215 38.9155 67.5 20.8021 67.65 20.265C67.8 19.6204 67.2857 18.9113 64.5215 16.0106C60.7929 12.0785 49.6286 0.862423 49.2429 0.647556C48.6429 0.325256 47.8715 0.43269 47.1215 0.948372Z" fill="#234363"/>
<path d="M143.786 2.53844C142.907 3.46237 137.4 9.0919 131.572 15.0437C125.743 21.0171 116.764 30.1274 111.622 35.2843C106.457 40.4411 102.193 44.8674 102.129 45.1037C102 45.4475 103.672 47.2309 111.472 55.0306C116.7 60.2734 121.179 64.6781 121.436 64.85C122.164 65.3442 122.722 64.9145 126.857 60.7246C128.914 58.6404 130.714 56.814 130.843 56.6851C130.993 56.5347 136.479 51.0555 143.057 44.4806C156.193 31.3737 164.936 22.4352 165.793 21.2319C166.157 20.7162 166.307 20.308 166.222 19.9642C166.05 19.3411 148.436 1.72194 147.493 1.22775C146.122 0.518684 145.586 0.712059 143.786 2.53844Z" fill="#03A9F4"/>
<path d="M174.429 29.6118C172.972 30.3423 155.143 48.1978 155.143 48.9499C155.143 49.2292 157.35 51.6142 161.422 55.7182C164.85 59.1991 169.2 63.6253 171.064 65.5162C173.786 68.3309 174.557 68.997 175.029 68.997C175.5 69.0185 176.722 67.8797 182.336 62.1857C193.95 50.3895 195.15 48.9499 194.293 47.7251C193.8 47.0161 177.257 30.2994 176.486 29.7192C175.714 29.1606 175.414 29.1391 174.429 29.6118Z" fill="#234363"/>
<path d="M19.0715 29.8267C18.7715 30.0201 18.4287 30.2994 18.3001 30.4283C17.1215 31.5241 9.45009 39.1519 5.52866 43.127L0.642944 48.0904V49.1218V50.1317L7.54294 57.1578C23.3572 73.2299 50.3144 100.131 51.1501 100.69L52.0501 101.27L53.1001 100.497C53.6787 100.088 55.1787 98.6488 56.443 97.3166C57.7072 95.9844 61.7787 91.8375 65.5072 88.0988C71.1215 82.4477 72.2358 81.223 72.1287 80.8577C71.9787 80.428 22.6501 30.8795 21.3858 29.9126C20.7001 29.3754 19.7787 29.3325 19.0715 29.8267Z" fill="#234363"/>
<path d="M145.714 50.8192C145.307 51.0985 143.507 52.8605 141.707 54.7298C139.929 56.6206 135.9 60.7461 132.772 63.9476C128.829 67.9656 127.072 69.8994 127.072 70.2218C127.072 70.5655 133.436 77.076 150.664 94.3514C170.593 114.334 174.343 117.987 174.836 117.987C175.329 117.987 176.636 116.762 182.7 110.638C186.686 106.599 190.843 102.409 191.914 101.356C193.007 100.282 194.057 99.1 194.25 98.7347C194.593 98.1116 194.593 98.0471 194.25 97.338C193.586 96.0273 147.686 50.4539 146.936 50.3465C146.679 50.325 146.122 50.5184 145.714 50.8192Z" fill="#234363"/>
<path d="M87.0644 60.4883C80.1429 67.45 77.1429 70.6085 77.1429 70.9308C77.1429 71.2531 83.8072 78.0644 99.9001 94.158C112.414 106.685 122.85 117.041 123.086 117.17C123.429 117.364 124.714 116.16 133.522 107.308C140.7 100.11 143.572 97.1017 143.572 96.7579C143.572 96.4141 137.293 90.0111 120.836 73.5737C108.343 61.0684 97.9929 50.7762 97.8644 50.6903C97.7144 50.6043 97.4787 50.5184 97.3072 50.5184C97.1358 50.5184 92.5287 55.0091 87.0644 60.4883Z" fill="#03A9F4"/>
<path d="M18.3215 79.3965C17.5501 79.7403 1.07148 95.9843 0.428624 97.0587C0.107195 97.5743 5.23105e-05 97.9826 0.107195 98.3694C0.192909 98.7346 9.23577 107.974 25.7786 124.583C45.3001 144.179 51.4501 150.217 51.8358 150.217C52.1143 150.217 52.7358 149.916 53.2286 149.529C54.5358 148.541 71.3358 131.523 71.4858 131.029C71.5929 130.707 66.5358 125.529 45.8786 104.858C18.1286 77.076 19.9072 78.709 18.3215 79.3965Z" fill="#234363"/>
<path d="M69.5358 93.32C64.3501 98.5628 59.5715 103.333 58.9072 103.956C57.6001 105.138 56.7858 106.105 56.7858 106.405C56.7858 106.771 75.3215 125.249 76.0501 125.615C76.6501 125.915 76.8643 125.937 77.4001 125.701C78.0858 125.421 80.8715 122.692 91.9929 111.412C97.6929 105.632 99.2143 103.977 99.2143 103.548C99.2143 103.097 97.2643 101.012 89.7429 93.406C81.4715 85.0476 80.1643 83.8229 79.6072 83.8229C79.0501 83.8014 77.8286 84.9617 69.5358 93.32Z" fill="#234363"/>
<path d="M147.707 102.387C147.386 102.667 145.221 104.815 142.929 107.157C136.843 113.346 132.086 118.116 130.436 119.663C129.364 120.694 129 121.167 129 121.597C129 122.069 130.2 123.359 135.707 128.752C139.371 132.383 148.521 141.472 155.979 148.949C173.379 166.375 174.493 167.406 175.757 167.406C176.55 167.406 176.936 167.041 186.664 157.05L194.143 149.379V148.434C194.143 147.789 193.993 147.295 193.607 146.758C192.557 145.339 149.079 101.872 148.693 101.872C148.5 101.872 148.05 102.108 147.707 102.387Z" fill="#234363"/>
<path d="M99.1072 112.787C91.9072 119.899 36.5143 175.679 35.1858 177.118C33.8358 178.601 33.7929 179.052 34.8429 180.535C35.7001 181.759 48.6215 194.931 50.7429 196.757C52.2643 198.068 52.9501 198.218 54.0858 197.488C54.4501 197.251 70.3072 181.48 89.3144 162.4C115.05 136.573 123.857 127.613 123.857 127.248C123.857 126.904 123.279 126.216 121.993 125.013C120.986 124.046 118.157 121.253 115.736 118.803C110.036 113.066 104.593 107.888 104.271 107.888C104.143 107.888 101.807 110.101 99.1072 112.787Z" fill="#03A9F4"/>
<path d="M19.2858 130.041C17.8072 131.244 1.71438 147.574 1.50009 148.068C1.28581 148.562 1.32866 148.799 1.65009 149.422C2.14295 150.389 18.3215 166.805 19.2215 167.277C19.7572 167.535 20.0358 167.578 20.4858 167.406C21.5144 166.998 39.0001 149.164 39.0001 148.52C39.0001 147.939 38.3787 147.23 34.1787 142.911C32.1644 140.849 29.8501 138.442 29.0144 137.561C28.2001 136.68 26.1001 134.532 24.3644 132.77C21.5787 129.998 21.0858 129.59 20.5072 129.59C20.1215 129.611 19.5858 129.805 19.2858 130.041Z" fill="#234363"/>
<path d="M128.893 131.975C128.657 132.061 117.922 142.718 105.064 155.653C83.7429 177.075 81.6429 179.246 81.6429 179.869C81.6429 180.492 82.5215 181.459 90.4715 189.452C100.157 199.207 100.05 199.121 101.422 198.111C101.807 197.853 107.55 192.116 114.214 185.369C120.879 178.644 131.272 168.18 137.314 162.142C143.593 155.825 148.286 150.969 148.286 150.754C148.286 150.346 130.243 132.125 129.643 131.91C129.472 131.846 129.129 131.867 128.893 131.975Z" fill="#234363"/>
<path d="M147.943 160.531C146.743 161.304 129.643 178.988 129.643 179.46C129.643 180.191 132.214 183.027 139.222 190.01C146.55 197.359 147.172 197.918 147.857 197.918C148.543 197.918 148.972 197.552 153.107 193.341C155.593 190.848 159.579 186.766 161.957 184.316C166.157 179.976 166.286 179.826 166.286 178.966C166.286 178.021 165.686 177.14 163.714 175.142C163.179 174.604 159.814 171.145 156.214 167.449C152.614 163.754 149.422 160.574 149.122 160.423C148.629 160.165 148.5 160.165 147.943 160.531Z" fill="#234363"/>
</g>
<defs>
<clipPath id="clip0_227_148">
<rect width="579" height="199" fill="white"/>
</clipPath>
</defs>
</svg>
