<svg width="752" height="306" viewBox="0 0 752 306" fill="none" xmlns="http://www.w3.org/2000/svg">
<path d="M267.36 181.96C264.907 181.96 262.4 181.587 259.84 180.84C257.333 180.04 255.013 178.867 252.88 177.32C250.747 175.72 249.12 173.72 248 171.32L256.24 168.28C257.627 170.253 259.253 171.693 261.12 172.6C262.987 173.453 264.907 173.88 266.88 173.88C270.027 173.88 272.587 172.947 274.56 171.08C276.533 169.16 277.52 166.627 277.52 163.48C277.52 160.44 276.56 157.933 274.64 155.96C272.72 153.987 270.213 153 267.12 153C265.307 153 263.6 153.4 262 154.2C260.453 155 259.253 155.96 258.4 157.08L250 155.24L253.12 125H284.08V133.4H261.12L259.52 148.6C260.96 147.747 262.56 147.08 264.32 146.6C266.133 146.067 268.027 145.8 270 145.8C273.2 145.8 276.08 146.547 278.64 148.04C281.2 149.533 283.227 151.587 284.72 154.2C286.213 156.76 286.96 159.72 286.96 163.08C286.96 166.813 286.107 170.093 284.4 172.92C282.747 175.747 280.453 177.96 277.52 179.56C274.587 181.16 271.2 181.96 267.36 181.96ZM313.69 181.96C310.757 181.96 308.063 181.613 305.61 180.92C303.21 180.227 301.077 179.267 299.21 178.04C297.397 176.813 295.877 175.453 294.65 173.96C293.477 172.413 292.65 170.813 292.17 169.16L301.29 166.36C301.983 168.333 303.343 170.067 305.37 171.56C307.397 173.053 309.903 173.827 312.89 173.88C316.357 173.88 319.103 173.16 321.13 171.72C323.157 170.28 324.17 168.387 324.17 166.04C324.17 163.907 323.317 162.173 321.61 160.84C319.903 159.453 317.61 158.387 314.73 157.64L307.85 155.88C305.237 155.187 302.863 154.173 300.73 152.84C298.65 151.507 296.997 149.827 295.77 147.8C294.597 145.773 294.01 143.373 294.01 140.6C294.01 135.373 295.717 131.32 299.13 128.44C302.543 125.507 307.423 124.04 313.77 124.04C317.343 124.04 320.463 124.6 323.13 125.72C325.85 126.787 328.09 128.28 329.85 130.2C331.61 132.067 332.917 134.2 333.77 136.6L324.81 139.48C324.01 137.347 322.623 135.587 320.65 134.2C318.677 132.813 316.223 132.12 313.29 132.12C310.25 132.12 307.85 132.84 306.09 134.28C304.383 135.72 303.53 137.72 303.53 140.28C303.53 142.36 304.197 143.987 305.53 145.16C306.917 146.28 308.783 147.133 311.13 147.72L318.01 149.4C323.023 150.627 326.917 152.733 329.69 155.72C332.463 158.707 333.85 162.013 333.85 165.64C333.85 168.84 333.077 171.667 331.53 174.12C329.983 176.573 327.69 178.493 324.65 179.88C321.663 181.267 318.01 181.96 313.69 181.96ZM371.815 181V133.48H354.615V125H398.295V133.48H381.095V181H371.815ZM404.396 181V125H438.876V133.48H413.676V148.36H435.916V156.68H413.676V172.52H439.116V181H404.396ZM468.384 181.96C465.45 181.96 462.757 181.613 460.304 180.92C457.904 180.227 455.77 179.267 453.904 178.04C452.09 176.813 450.57 175.453 449.344 173.96C448.17 172.413 447.344 170.813 446.864 169.16L455.984 166.36C456.677 168.333 458.037 170.067 460.064 171.56C462.09 173.053 464.597 173.827 467.584 173.88C471.05 173.88 473.797 173.16 475.824 171.72C477.85 170.28 478.864 168.387 478.864 166.04C478.864 163.907 478.01 162.173 476.304 160.84C474.597 159.453 472.304 158.387 469.424 157.64L462.544 155.88C459.93 155.187 457.557 154.173 455.424 152.84C453.344 151.507 451.69 149.827 450.464 147.8C449.29 145.773 448.704 143.373 448.704 140.6C448.704 135.373 450.41 131.32 453.824 128.44C457.237 125.507 462.117 124.04 468.464 124.04C472.037 124.04 475.157 124.6 477.824 125.72C480.544 126.787 482.784 128.28 484.544 130.2C486.304 132.067 487.61 134.2 488.464 136.6L479.504 139.48C478.704 137.347 477.317 135.587 475.344 134.2C473.37 132.813 470.917 132.12 467.984 132.12C464.944 132.12 462.544 132.84 460.784 134.28C459.077 135.72 458.224 137.72 458.224 140.28C458.224 142.36 458.89 143.987 460.224 145.16C461.61 146.28 463.477 147.133 465.824 147.72L472.704 149.4C477.717 150.627 481.61 152.733 484.384 155.72C487.157 158.707 488.544 162.013 488.544 165.64C488.544 168.84 487.77 171.667 486.224 174.12C484.677 176.573 482.384 178.493 479.344 179.88C476.357 181.267 472.704 181.96 468.384 181.96Z" fill="#234363"/>
<path d="M99.6429 56.6906C98.7 57.2708 95.8286 60.107 81.3429 74.6965C74.85 81.25 68.1 88.0183 66.3429 89.7372C56.1214 99.8145 52.5 103.489 52.5 103.811C52.5 104.004 52.7357 104.52 53.0143 104.971C53.6143 105.895 71.6786 123.987 72.3643 124.331C72.9857 124.653 73.3286 124.352 80.0357 117.477C83.1 114.361 93.3214 104.026 102.75 94.5503C112.179 85.0531 120.064 76.9526 120.279 76.5444C120.664 75.8138 120.664 75.7709 120.279 75.1477C119.679 74.2023 103.157 57.5071 102.129 56.841C101.079 56.132 100.629 56.089 99.6429 56.6906Z" fill="#234363"/>
<path d="M50.1215 56.9484C49.2429 57.55 49.5 57.3136 39.15 67.6058C34.5857 72.161 30.8572 75.9427 30.8572 76.0501C30.8572 76.2435 34.4786 80.1541 36.9215 82.5821C37.8857 83.5275 41.2286 86.9009 44.3357 90.038C47.4643 93.1965 50.1857 95.8179 50.4 95.9039C50.6143 95.9683 51.0857 95.8394 51.45 95.6031C52.5215 94.9155 70.5 76.8021 70.65 76.265C70.8 75.6204 70.2857 74.9113 67.5215 72.0106C63.7929 68.0785 52.6286 56.8624 52.2429 56.6476C51.6429 56.3253 50.8715 56.4327 50.1215 56.9484Z" fill="#234363"/>
<path d="M146.786 58.5384C145.907 59.4624 140.4 65.0919 134.572 71.0437C128.743 77.0171 119.764 86.1274 114.622 91.2843C109.457 96.4411 105.193 100.867 105.129 101.104C105 101.447 106.672 103.231 114.472 111.031C119.7 116.273 124.179 120.678 124.436 120.85C125.164 121.344 125.722 120.915 129.857 116.725C131.914 114.64 133.714 112.814 133.843 112.685C133.993 112.535 139.479 107.056 146.057 100.481C159.193 87.3737 167.936 78.4352 168.793 77.2319C169.157 76.7162 169.307 76.308 169.222 75.9642C169.05 75.3411 151.436 57.7219 150.493 57.2277C149.122 56.5187 148.586 56.7121 146.786 58.5384Z" fill="#F1BD44"/>
<path d="M177.429 85.6118C175.972 86.3423 158.143 104.198 158.143 104.95C158.143 105.229 160.35 107.614 164.422 111.718C167.85 115.199 172.2 119.625 174.064 121.516C176.786 124.331 177.557 124.997 178.029 124.997C178.5 125.019 179.722 123.88 185.336 118.186C196.95 106.389 198.15 104.95 197.293 103.725C196.8 103.016 180.257 86.2994 179.486 85.7192C178.714 85.1606 178.414 85.1391 177.429 85.6118Z" fill="#234363"/>
<path d="M22.0715 85.8267C21.7715 86.0201 21.4287 86.2994 21.3001 86.4283C20.1215 87.5241 12.4501 95.1519 8.52866 99.127L3.64294 104.09V105.122V106.132L10.5429 113.158C26.3572 129.23 53.3144 156.131 54.1501 156.69L55.0501 157.27L56.1001 156.497C56.6787 156.088 58.1787 154.649 59.443 153.317C60.7072 151.984 64.7787 147.837 68.5072 144.099C74.1215 138.448 75.2358 137.223 75.1287 136.858C74.9787 136.428 25.6501 86.8795 24.3858 85.9126C23.7001 85.3754 22.7787 85.3325 22.0715 85.8267Z" fill="#234363"/>
<path d="M148.714 106.819C148.307 107.099 146.507 108.86 144.707 110.73C142.929 112.621 138.9 116.746 135.772 119.948C131.829 123.966 130.072 125.899 130.072 126.222C130.072 126.566 136.436 133.076 153.664 150.351C173.593 170.334 177.343 173.987 177.836 173.987C178.329 173.987 179.636 172.762 185.7 166.638C189.686 162.599 193.843 158.409 194.914 157.356C196.007 156.282 197.057 155.1 197.25 154.735C197.593 154.112 197.593 154.047 197.25 153.338C196.586 152.027 150.686 106.454 149.936 106.346C149.679 106.325 149.122 106.518 148.714 106.819Z" fill="#234363"/>
<path d="M90.0644 116.488C83.1429 123.45 80.1429 126.609 80.1429 126.931C80.1429 127.253 86.8072 134.064 102.9 150.158C115.414 162.685 125.85 173.041 126.086 173.17C126.429 173.364 127.714 172.16 136.522 163.308C143.7 156.11 146.572 153.102 146.572 152.758C146.572 152.414 140.293 146.011 123.836 129.574C111.343 117.068 100.993 106.776 100.864 106.69C100.714 106.604 100.479 106.518 100.307 106.518C100.136 106.518 95.5287 111.009 90.0644 116.488Z" fill="#F1BD44"/>
<path d="M21.3215 135.397C20.5501 135.74 4.07148 151.984 3.42862 153.059C3.1072 153.574 3.00005 153.983 3.1072 154.369C3.19291 154.735 12.2358 163.974 28.7786 180.583C48.3001 200.179 54.4501 206.217 54.8358 206.217C55.1143 206.217 55.7358 205.916 56.2286 205.529C57.5358 204.541 74.3358 187.523 74.4858 187.029C74.5929 186.707 69.5358 181.529 48.8786 160.858C21.1286 133.076 22.9072 134.709 21.3215 135.397Z" fill="#234363"/>
<path d="M72.5358 149.32C67.3501 154.563 62.5715 159.333 61.9072 159.956C60.6001 161.138 59.7858 162.105 59.7858 162.405C59.7858 162.771 78.3215 181.249 79.0501 181.615C79.6501 181.915 79.8643 181.937 80.4001 181.701C81.0858 181.421 83.8715 178.692 94.9929 167.412C100.693 161.632 102.214 159.977 102.214 159.548C102.214 159.097 100.264 157.012 92.7429 149.406C84.4715 141.048 83.1643 139.823 82.6072 139.823C82.0501 139.801 80.8286 140.962 72.5358 149.32Z" fill="#234363"/>
<path d="M150.707 158.387C150.386 158.667 148.221 160.815 145.929 163.157C139.843 169.346 135.086 174.116 133.436 175.663C132.364 176.694 132 177.167 132 177.597C132 178.069 133.2 179.359 138.707 184.752C142.371 188.383 151.521 197.472 158.979 204.949C176.379 222.375 177.493 223.406 178.757 223.406C179.55 223.406 179.936 223.041 189.664 213.05L197.143 205.379V204.434C197.143 203.789 196.993 203.295 196.607 202.758C195.557 201.339 152.079 157.872 151.693 157.872C151.5 157.872 151.05 158.108 150.707 158.387Z" fill="#234363"/>
<path d="M102.107 168.787C94.9072 175.899 39.5143 231.679 38.1858 233.118C36.8358 234.601 36.7929 235.052 37.8429 236.535C38.7001 237.759 51.6215 250.931 53.7429 252.757C55.2643 254.068 55.9501 254.218 57.0858 253.488C57.4501 253.251 73.3072 237.48 92.3144 218.4C118.05 192.573 126.857 183.613 126.857 183.248C126.857 182.904 126.279 182.216 124.993 181.013C123.986 180.046 121.157 177.253 118.736 174.803C113.036 169.066 107.593 163.888 107.271 163.888C107.143 163.888 104.807 166.101 102.107 168.787Z" fill="#F1BD44"/>
<path d="M22.2858 186.041C20.8072 187.244 4.71438 203.574 4.50009 204.068C4.28581 204.562 4.32866 204.799 4.65009 205.422C5.14295 206.389 21.3215 222.805 22.2215 223.277C22.7572 223.535 23.0358 223.578 23.4858 223.406C24.5144 222.998 42.0001 205.164 42.0001 204.52C42.0001 203.939 41.3787 203.23 37.1787 198.911C35.1644 196.849 32.8501 194.442 32.0144 193.561C31.2001 192.68 29.1001 190.532 27.3644 188.77C24.5787 185.998 24.0858 185.59 23.5072 185.59C23.1215 185.611 22.5858 185.805 22.2858 186.041Z" fill="#234363"/>
<path d="M131.893 187.975C131.657 188.061 120.922 198.718 108.064 211.653C86.7429 233.075 84.6429 235.246 84.6429 235.869C84.6429 236.492 85.5215 237.459 93.4715 245.452C103.157 255.207 103.05 255.121 104.422 254.111C104.807 253.853 110.55 248.116 117.214 241.369C123.879 234.644 134.272 224.18 140.314 218.142C146.593 211.825 151.286 206.969 151.286 206.754C151.286 206.346 133.243 188.125 132.643 187.91C132.472 187.846 132.129 187.867 131.893 187.975Z" fill="#234363"/>
<path d="M150.943 216.531C149.743 217.304 132.643 234.988 132.643 235.46C132.643 236.191 135.214 239.027 142.222 246.01C149.55 253.359 150.172 253.918 150.857 253.918C151.543 253.918 151.972 253.552 156.107 249.341C158.593 246.848 162.579 242.766 164.957 240.316C169.157 235.976 169.286 235.826 169.286 234.966C169.286 234.021 168.686 233.14 166.714 231.142C166.179 230.604 162.814 227.145 159.214 223.449C155.614 219.754 152.422 216.574 152.122 216.423C151.629 216.165 151.5 216.165 150.943 216.531Z" fill="#234363"/>
</svg>
