<svg width="587" height="199" viewBox="0 0 587 199" fill="none" xmlns="http://www.w3.org/2000/svg">
<g clip-path="url(#clip0_227_156)">
<path d="M237.64 77V21H272.44V29.48H246.92V45.16H268.76V53.64H246.92V77H237.64ZM278.904 77V37H287.784V77H278.904ZM283.384 29.4C281.944 29.4 280.691 28.8933 279.624 27.88C278.611 26.8133 278.104 25.56 278.104 24.12C278.104 22.68 278.611 21.4533 279.624 20.44C280.691 19.4267 281.944 18.92 283.384 18.92C284.824 18.92 286.051 19.4267 287.064 20.44C288.131 21.4533 288.664 22.68 288.664 24.12C288.664 25.56 288.131 26.8133 287.064 27.88C286.051 28.8933 284.824 29.4 283.384 29.4ZM309.624 77L325.224 37H334.504L318.024 77H309.624ZM308.984 77L292.424 37H301.624L317.304 77H308.984ZM355.25 77.96C351.357 77.96 347.89 77.08 344.85 75.32C341.863 73.5067 339.49 71.0267 337.73 67.88C336.023 64.7333 335.17 61.1067 335.17 57C335.17 52.8933 336.05 49.2667 337.81 46.12C339.57 42.9733 341.97 40.52 345.01 38.76C348.103 36.9467 351.623 36.04 355.57 36.04C359.143 36.04 362.37 36.9733 365.25 38.84C368.13 40.6533 370.397 43.2933 372.05 46.76C373.757 50.2267 374.61 54.36 374.61 59.16H343.17L344.37 58.04C344.37 60.4933 344.903 62.6267 345.97 64.44C347.037 66.2 348.45 67.56 350.21 68.52C351.97 69.48 353.917 69.96 356.05 69.96C358.503 69.96 360.53 69.4267 362.13 68.36C363.73 67.24 364.983 65.8 365.89 64.04L373.81 67.4C372.69 69.5333 371.25 71.4 369.49 73C367.783 74.6 365.73 75.8267 363.33 76.68C360.983 77.5333 358.29 77.96 355.25 77.96ZM344.93 53.4L343.65 52.28H366.21L365.01 53.4C365.01 51.2133 364.53 49.4267 363.57 48.04C362.61 46.6 361.383 45.5333 359.89 44.84C358.45 44.0933 356.93 43.72 355.33 43.72C353.73 43.72 352.13 44.0933 350.53 44.84C348.93 45.5333 347.597 46.6 346.53 48.04C345.463 49.4267 344.93 51.2133 344.93 53.4ZM417.649 77.96C414.716 77.96 412.023 77.6133 409.569 76.92C407.169 76.2267 405.036 75.2667 403.169 74.04C401.356 72.8133 399.836 71.4533 398.609 69.96C397.436 68.4133 396.609 66.8133 396.129 65.16L405.249 62.36C405.943 64.3333 407.303 66.0667 409.329 67.56C411.356 69.0533 413.863 69.8267 416.849 69.88C420.316 69.88 423.063 69.16 425.089 67.72C427.116 66.28 428.129 64.3867 428.129 62.04C428.129 59.9067 427.276 58.1733 425.569 56.84C423.863 55.4533 421.569 54.3867 418.689 53.64L411.809 51.88C409.196 51.1867 406.823 50.1733 404.689 48.84C402.609 47.5067 400.956 45.8267 399.729 43.8C398.556 41.7733 397.969 39.3733 397.969 36.6C397.969 31.3733 399.676 27.32 403.089 24.44C406.503 21.5067 411.383 20.04 417.729 20.04C421.303 20.04 424.423 20.6 427.089 21.72C429.809 22.7867 432.049 24.28 433.809 26.2C435.569 28.0667 436.876 30.2 437.729 32.6L428.769 35.48C427.969 33.3467 426.583 31.5867 424.609 30.2C422.636 28.8133 420.183 28.12 417.249 28.12C414.209 28.12 411.809 28.84 410.049 30.28C408.343 31.72 407.489 33.72 407.489 36.28C407.489 38.36 408.156 39.9867 409.489 41.16C410.876 42.28 412.743 43.1333 415.089 43.72L421.969 45.4C426.983 46.6267 430.876 48.7333 433.649 51.72C436.423 54.7067 437.809 58.0133 437.809 61.64C437.809 64.84 437.036 67.6667 435.489 70.12C433.943 72.5733 431.649 74.4933 428.609 75.88C425.623 77.2667 421.969 77.96 417.649 77.96ZM469.197 77L468.797 69.48V56.44C468.797 53.72 468.504 51.4533 467.917 49.64C467.384 47.7733 466.477 46.36 465.197 45.4C463.971 44.3867 462.317 43.88 460.237 43.88C458.317 43.88 456.637 44.28 455.197 45.08C453.757 45.88 452.531 47.1333 451.517 48.84L443.677 45.96C444.531 44.2 445.651 42.5733 447.037 41.08C448.477 39.5333 450.264 38.3067 452.397 37.4C454.584 36.4933 457.197 36.04 460.237 36.04C464.131 36.04 467.384 36.8133 469.997 38.36C472.611 39.8533 474.531 42.0133 475.757 44.84C477.037 47.6667 477.677 51.08 477.677 55.08L477.437 77H469.197ZM457.677 77.96C452.877 77.96 449.144 76.8933 446.477 74.76C443.864 72.6267 442.557 69.6133 442.557 65.72C442.557 61.56 443.944 58.3867 446.717 56.2C449.544 54.0133 453.464 52.92 458.477 52.92H469.197V59.8H461.357C457.784 59.8 455.277 60.3067 453.837 61.32C452.397 62.28 451.677 63.6667 451.677 65.48C451.677 67.0267 452.291 68.2533 453.517 69.16C454.797 70.0133 456.557 70.44 458.797 70.44C460.824 70.44 462.584 69.9867 464.077 69.08C465.571 68.1733 466.717 66.9733 467.517 65.48C468.371 63.9867 468.797 62.3067 468.797 60.44H471.437C471.437 65.88 470.344 70.1733 468.157 73.32C465.971 76.4133 462.477 77.96 457.677 77.96ZM489.151 77V32.76C489.151 28.5467 490.191 25.32 492.271 23.08C494.404 20.7867 497.604 19.64 501.871 19.64C503.257 19.64 504.724 19.88 506.271 20.36C507.871 20.7867 509.391 21.3733 510.831 22.12L507.551 28.76C506.537 28.28 505.631 27.9333 504.831 27.72C504.084 27.5067 503.417 27.4 502.831 27.4C501.231 27.4 500.031 27.9333 499.231 29C498.484 30.0133 498.111 31.6933 498.111 34.04V77H489.151ZM482.271 44.36V37H508.591V44.36H482.271ZM531.391 77.96C527.497 77.96 524.031 77.08 520.991 75.32C518.004 73.5067 515.631 71.0267 513.871 67.88C512.164 64.7333 511.311 61.1067 511.311 57C511.311 52.8933 512.191 49.2667 513.951 46.12C515.711 42.9733 518.111 40.52 521.151 38.76C524.244 36.9467 527.764 36.04 531.711 36.04C535.284 36.04 538.511 36.9733 541.391 38.84C544.271 40.6533 546.537 43.2933 548.191 46.76C549.897 50.2267 550.751 54.36 550.751 59.16H519.311L520.511 58.04C520.511 60.4933 521.044 62.6267 522.111 64.44C523.177 66.2 524.591 67.56 526.351 68.52C528.111 69.48 530.057 69.96 532.191 69.96C534.644 69.96 536.671 69.4267 538.271 68.36C539.871 67.24 541.124 65.8 542.031 64.04L549.951 67.4C548.831 69.5333 547.391 71.4 545.631 73C543.924 74.6 541.871 75.8267 539.471 76.68C537.124 77.5333 534.431 77.96 531.391 77.96ZM521.071 53.4L519.791 52.28H542.351L541.151 53.4C541.151 51.2133 540.671 49.4267 539.711 48.04C538.751 46.6 537.524 45.5333 536.031 44.84C534.591 44.0933 533.071 43.72 531.471 43.72C529.871 43.72 528.271 44.0933 526.671 44.84C525.071 45.5333 523.737 46.6 522.671 48.04C521.604 49.4267 521.071 51.2133 521.071 53.4ZM570.573 77.96C567.906 77.96 565.453 77.56 563.213 76.76C560.973 75.96 559.053 74.84 557.453 73.4C555.853 71.9067 554.626 70.1733 553.773 68.2L561.533 64.76C562.333 66.2533 563.506 67.5067 565.053 68.52C566.653 69.5333 568.413 70.04 570.333 70.04C572.413 70.04 574.066 69.6933 575.293 69C576.573 68.2533 577.213 67.24 577.213 65.96C577.213 64.7333 576.733 63.8 575.773 63.16C574.813 62.4667 573.453 61.9067 571.693 61.48L567.933 60.44C564.146 59.48 561.186 57.96 559.053 55.88C556.92 53.7467 555.853 51.32 555.853 48.6C555.853 44.6 557.133 41.5067 559.693 39.32C562.306 37.1333 566.04 36.04 570.893 36.04C573.346 36.04 575.586 36.4133 577.613 37.16C579.693 37.8533 581.48 38.8667 582.973 40.2C584.466 41.48 585.506 43 586.093 44.76L578.653 48.12C578.12 46.7867 577.106 45.7733 575.613 45.08C574.12 44.3333 572.466 43.96 570.653 43.96C568.84 43.96 567.426 44.36 566.413 45.16C565.4 45.9067 564.893 46.9733 564.893 48.36C564.893 49.16 565.346 49.9067 566.253 50.6C567.16 51.24 568.466 51.7733 570.173 52.2L574.893 53.32C577.506 53.96 579.64 54.9733 581.293 56.36C582.946 57.6933 584.173 59.2133 584.973 60.92C585.773 62.5733 586.173 64.2533 586.173 65.96C586.173 68.36 585.48 70.4667 584.093 72.28C582.76 74.0933 580.92 75.5067 578.573 76.52C576.226 77.48 573.56 77.96 570.573 77.96ZM249.24 173V125.48H232.04V117H275.72V125.48H258.52V173H249.24ZM281.821 173V117H316.301V125.48H291.101V140.36H313.341V148.68H291.101V164.52H316.541V173H281.821ZM345.809 173.96C342.875 173.96 340.182 173.613 337.729 172.92C335.329 172.227 333.195 171.267 331.329 170.04C329.515 168.813 327.995 167.453 326.769 165.96C325.595 164.413 324.769 162.813 324.289 161.16L333.409 158.36C334.102 160.333 335.462 162.067 337.489 163.56C339.515 165.053 342.022 165.827 345.009 165.88C348.475 165.88 351.222 165.16 353.249 163.72C355.275 162.28 356.289 160.387 356.289 158.04C356.289 155.907 355.435 154.173 353.729 152.84C352.022 151.453 349.729 150.387 346.849 149.64L339.969 147.88C337.355 147.187 334.982 146.173 332.849 144.84C330.769 143.507 329.115 141.827 327.889 139.8C326.715 137.773 326.129 135.373 326.129 132.6C326.129 127.373 327.835 123.32 331.249 120.44C334.662 117.507 339.542 116.04 345.889 116.04C349.462 116.04 352.582 116.6 355.249 117.72C357.969 118.787 360.209 120.28 361.969 122.2C363.729 124.067 365.035 126.2 365.889 128.6L356.929 131.48C356.129 129.347 354.742 127.587 352.769 126.2C350.795 124.813 348.342 124.12 345.409 124.12C342.369 124.12 339.969 124.84 338.209 126.28C336.502 127.72 335.649 129.72 335.649 132.28C335.649 134.36 336.315 135.987 337.649 137.16C339.035 138.28 340.902 139.133 343.249 139.72L350.129 141.4C355.142 142.627 359.035 144.733 361.809 147.72C364.582 150.707 365.969 154.013 365.969 157.64C365.969 160.84 365.195 163.667 363.649 166.12C362.102 168.573 359.809 170.493 356.769 171.88C353.782 173.267 350.129 173.96 345.809 173.96Z" fill="#234363"/>
<path d="M96.6429 0.690605C95.7 1.27075 92.8286 4.107 78.3429 18.6965C71.85 25.25 65.1 32.0183 63.3429 33.7372C53.1214 43.8145 49.5 47.4888 49.5 47.8111C49.5 48.0045 49.7357 48.5201 50.0143 48.9714C50.6143 49.8953 68.6786 67.9871 69.3643 68.3309C69.9857 68.6532 70.3286 68.3524 77.0357 61.4767C80.1 58.3611 90.3214 48.0259 99.75 38.5503C109.179 29.0531 117.064 20.9526 117.279 20.5444C117.664 19.8138 117.664 19.7709 117.279 19.1477C116.679 18.2023 100.157 1.5071 99.1286 0.841011C98.0786 0.13195 97.6286 0.088974 96.6429 0.690605Z" fill="#234363"/>
<path d="M47.1215 0.948372C46.2429 1.55 46.5 1.31365 36.15 11.6058C31.5857 16.161 27.8572 19.9427 27.8572 20.0501C27.8572 20.2435 31.4786 24.1541 33.9215 26.5821C34.8857 27.5275 38.2286 30.9009 41.3357 34.038C44.4643 37.1965 47.1857 39.8179 47.4 39.9039C47.6143 39.9683 48.0857 39.8394 48.45 39.6031C49.5215 38.9155 67.5 20.8021 67.65 20.265C67.8 19.6204 67.2857 18.9113 64.5215 16.0106C60.7929 12.0785 49.6286 0.862423 49.2429 0.647556C48.6429 0.325256 47.8715 0.43269 47.1215 0.948372Z" fill="#234363"/>
<path d="M143.786 2.53844C142.907 3.46237 137.4 9.0919 131.571 15.0437C125.743 21.0171 116.764 30.1274 111.621 35.2843C106.457 40.4411 102.193 44.8674 102.129 45.1037C102 45.4475 103.671 47.2309 111.471 55.0306C116.7 60.2734 121.179 64.6781 121.436 64.85C122.164 65.3442 122.721 64.9145 126.857 60.7246C128.914 58.6404 130.714 56.814 130.843 56.6851C130.993 56.5347 136.479 51.0555 143.057 44.4806C156.193 31.3737 164.936 22.4352 165.793 21.2319C166.157 20.7162 166.307 20.308 166.221 19.9642C166.05 19.3411 148.436 1.72194 147.493 1.22775C146.121 0.518684 145.586 0.712059 143.786 2.53844Z" fill="#F1BD44"/>
<path d="M174.429 29.6118C172.971 30.3423 155.143 48.1978 155.143 48.9499C155.143 49.2292 157.35 51.6142 161.421 55.7182C164.85 59.1991 169.2 63.6253 171.064 65.5162C173.786 68.3309 174.557 68.997 175.029 68.997C175.5 69.0185 176.721 67.8797 182.336 62.1857C193.95 50.3895 195.15 48.9499 194.293 47.7251C193.8 47.0161 177.257 30.2994 176.486 29.7192C175.714 29.1606 175.414 29.1391 174.429 29.6118Z" fill="#234363"/>
<path d="M19.0715 29.8267C18.7715 30.0201 18.4287 30.2994 18.3001 30.4283C17.1215 31.5241 9.45009 39.1519 5.52866 43.127L0.642944 48.0904V49.1218V50.1317L7.54294 57.1578C23.3572 73.2299 50.3144 100.131 51.1501 100.69L52.0501 101.27L53.1001 100.497C53.6787 100.088 55.1787 98.6488 56.443 97.3166C57.7072 95.9844 61.7787 91.8375 65.5072 88.0988C71.1215 82.4477 72.2358 81.223 72.1287 80.8577C71.9787 80.428 22.6501 30.8795 21.3858 29.9126C20.7001 29.3754 19.7787 29.3325 19.0715 29.8267Z" fill="#234363"/>
<path d="M145.714 50.8192C145.307 51.0985 143.507 52.8605 141.707 54.7298C139.929 56.6206 135.9 60.7461 132.772 63.9476C128.829 67.9656 127.072 69.8994 127.072 70.2218C127.072 70.5655 133.436 77.076 150.664 94.3514C170.593 114.334 174.343 117.987 174.836 117.987C175.329 117.987 176.636 116.762 182.7 110.638C186.686 106.599 190.843 102.409 191.914 101.356C193.007 100.282 194.057 99.1 194.25 98.7347C194.593 98.1116 194.593 98.0471 194.25 97.338C193.586 96.0273 147.686 50.4539 146.936 50.3465C146.679 50.325 146.122 50.5184 145.714 50.8192Z" fill="#234363"/>
<path d="M87.0643 60.4883C80.1428 67.45 77.1428 70.6085 77.1428 70.9308C77.1428 71.2531 83.8071 78.0644 99.9 94.158C112.414 106.685 122.85 117.041 123.086 117.17C123.429 117.364 124.714 116.16 133.521 107.308C140.7 100.11 143.571 97.1017 143.571 96.7579C143.571 96.4141 137.293 90.0111 120.836 73.5737C108.343 61.0684 97.9928 50.7762 97.8643 50.6903C97.7143 50.6043 97.4785 50.5184 97.3071 50.5184C97.1357 50.5184 92.5285 55.0091 87.0643 60.4883Z" fill="#F1BD44"/>
<path d="M18.3215 79.3965C17.5501 79.7403 1.07148 95.9843 0.428624 97.0587C0.107195 97.5743 5.23105e-05 97.9826 0.107195 98.3694C0.192909 98.7346 9.23577 107.974 25.7786 124.583C45.3001 144.179 51.4501 150.217 51.8358 150.217C52.1143 150.217 52.7358 149.916 53.2286 149.529C54.5358 148.541 71.3358 131.523 71.4858 131.029C71.5929 130.707 66.5358 125.529 45.8786 104.858C18.1286 77.076 19.9072 78.709 18.3215 79.3965Z" fill="#234363"/>
<path d="M69.5356 93.32C64.3499 98.5628 59.5714 103.333 58.9071 103.956C57.5999 105.138 56.7856 106.105 56.7856 106.405C56.7856 106.771 75.3214 125.249 76.0499 125.615C76.6499 125.915 76.8642 125.937 77.3999 125.701C78.0856 125.421 80.8714 122.692 91.9928 111.412C97.6928 105.632 99.2142 103.977 99.2142 103.548C99.2142 103.097 97.2642 101.012 89.7428 93.406C81.4714 85.0476 80.1642 83.8229 79.6071 83.8229C79.0499 83.8014 77.8285 84.9617 69.5356 93.32Z" fill="#234363"/>
<path d="M147.707 102.387C147.386 102.667 145.221 104.815 142.929 107.157C136.843 113.346 132.086 118.116 130.436 119.663C129.364 120.694 129 121.167 129 121.597C129 122.069 130.2 123.359 135.707 128.752C139.371 132.383 148.521 141.472 155.979 148.949C173.379 166.375 174.493 167.406 175.757 167.406C176.55 167.406 176.936 167.041 186.664 157.05L194.143 149.379V148.434C194.143 147.789 193.993 147.295 193.607 146.758C192.557 145.339 149.079 101.872 148.693 101.872C148.5 101.872 148.05 102.108 147.707 102.387Z" fill="#234363"/>
<path d="M99.1071 112.787C91.9071 119.899 36.5142 175.679 35.1857 177.118C33.8357 178.601 33.7928 179.052 34.8428 180.535C35.6999 181.759 48.6214 194.931 50.7428 196.757C52.2642 198.068 52.9499 198.218 54.0857 197.488C54.4499 197.251 70.3071 181.48 89.3142 162.4C115.05 136.573 123.857 127.613 123.857 127.248C123.857 126.904 123.279 126.216 121.993 125.013C120.986 124.046 118.157 121.253 115.736 118.803C110.036 113.066 104.593 107.888 104.271 107.888C104.143 107.888 101.807 110.101 99.1071 112.787Z" fill="#F1BD44"/>
<path d="M19.2858 130.041C17.8072 131.244 1.71438 147.574 1.50009 148.068C1.28581 148.562 1.32866 148.799 1.65009 149.422C2.14295 150.389 18.3215 166.805 19.2215 167.277C19.7572 167.535 20.0358 167.578 20.4858 167.406C21.5144 166.998 39.0001 149.164 39.0001 148.52C39.0001 147.939 38.3787 147.23 34.1787 142.911C32.1644 140.849 29.8501 138.442 29.0144 137.561C28.2001 136.68 26.1001 134.532 24.3644 132.77C21.5787 129.998 21.0858 129.59 20.5072 129.59C20.1215 129.611 19.5858 129.805 19.2858 130.041Z" fill="#234363"/>
<path d="M128.893 131.975C128.657 132.061 117.921 142.718 105.064 155.653C83.7428 177.075 81.6428 179.246 81.6428 179.869C81.6428 180.492 82.5214 181.459 90.4714 189.452C100.157 199.207 100.05 199.121 101.421 198.111C101.807 197.853 107.55 192.116 114.214 185.369C120.879 178.644 131.271 168.18 137.314 162.142C143.593 155.825 148.286 150.969 148.286 150.754C148.286 150.346 130.243 132.125 129.643 131.91C129.471 131.846 129.129 131.867 128.893 131.975Z" fill="#234363"/>
<path d="M147.943 160.531C146.743 161.304 129.643 178.988 129.643 179.46C129.643 180.191 132.214 183.027 139.221 190.01C146.55 197.359 147.171 197.918 147.857 197.918C148.543 197.918 148.971 197.552 153.107 193.341C155.593 190.848 159.579 186.766 161.957 184.316C166.157 179.976 166.286 179.826 166.286 178.966C166.286 178.021 165.686 177.14 163.714 175.142C163.179 174.604 159.814 171.145 156.214 167.449C152.614 163.754 149.421 160.574 149.121 160.423C148.629 160.165 148.5 160.165 147.943 160.531Z" fill="#234363"/>
</g>
<defs>
<clipPath id="clip0_227_156">
<rect width="587" height="199" fill="white"/>
</clipPath>
</defs>
</svg>
