<svg xmlns="http://www.w3.org/2000/svg" version="1.1" xmlns:xlink="http://www.w3.org/1999/xlink" width="201" height="211"><svg width="201" height="211" viewBox="0 0 201 211" fill="none" xmlns="http://www.w3.org/2000/svg">
<path d="M99.6429 9.69061C98.7 10.2707 95.8286 13.107 81.3429 27.6965C74.85 34.25 68.1 41.0183 66.3429 42.7372C56.1214 52.8145 52.5 56.4888 52.5 56.8111C52.5 57.0045 52.7357 57.5201 53.0143 57.9714C53.6143 58.8953 71.6786 76.9871 72.3643 77.3309C72.9857 77.6532 73.3286 77.3524 80.0357 70.4767C83.1 67.3611 93.3214 57.0259 102.75 47.5503C112.179 38.0531 120.064 29.9526 120.279 29.5444C120.664 28.8138 120.664 28.7708 120.279 28.1477C119.679 27.2023 103.157 10.5071 102.129 9.84101C101.079 9.13195 100.629 9.08898 99.6429 9.69061Z" fill="#234363"></path>
<path d="M50.1215 9.94837C49.2429 10.55 49.5 10.3136 39.15 20.6058C34.5857 25.161 30.8572 28.9427 30.8572 29.0501C30.8572 29.2435 34.4786 33.1541 36.9215 35.5821C37.8857 36.5275 41.2286 39.9009 44.3357 43.038C47.4643 46.1965 50.1857 48.8179 50.4 48.9039C50.6143 48.9683 51.0857 48.8394 51.45 48.6031C52.5215 47.9155 70.5 29.8021 70.65 29.265C70.8 28.6204 70.2857 27.9113 67.5215 25.0106C63.7929 21.0785 52.6286 9.86242 52.2429 9.64756C51.6429 9.32526 50.8715 9.43269 50.1215 9.94837Z" fill="#234363"></path>
<path d="M146.786 11.5384C145.907 12.4624 140.4 18.0919 134.571 24.0437C128.743 30.0171 119.764 39.1274 114.621 44.2843C109.457 49.4411 105.193 53.8674 105.129 54.1037C105 54.4475 106.671 56.2309 114.471 64.0306C119.7 69.2734 124.179 73.6781 124.436 73.85C125.164 74.3442 125.721 73.9145 129.857 69.7246C131.914 67.6404 133.714 65.814 133.843 65.6851C133.993 65.5347 139.479 60.0555 146.057 53.4806C159.193 40.3737 167.936 31.4352 168.793 30.2319C169.157 29.7162 169.307 29.308 169.221 28.9642C169.05 28.3411 151.436 10.7219 150.493 10.2277C149.121 9.51868 148.586 9.71206 146.786 11.5384Z" fill="#234363"></path>
<path d="M177.429 38.6118C175.971 39.3423 158.143 57.1978 158.143 57.9499C158.143 58.2292 160.35 60.6142 164.421 64.7182C167.85 68.1991 172.2 72.6253 174.064 74.5162C176.786 77.3309 177.557 77.997 178.029 77.997C178.5 78.0185 179.721 76.8797 185.336 71.1857C196.95 59.3895 198.15 57.9499 197.293 56.7251C196.8 56.0161 180.257 39.2994 179.486 38.7192C178.714 38.1606 178.414 38.1391 177.429 38.6118Z" fill="#234363"></path>
<path d="M22.0714 38.8267C21.7714 39.02 21.4285 39.2994 21.3 39.4283C20.1214 40.5241 12.45 48.1519 8.52854 52.127L3.64282 57.0904V58.1218V59.1317L10.5428 66.1578C26.3571 82.2299 53.3143 109.131 54.15 109.69L55.05 110.27L56.1 109.497C56.6785 109.088 58.1785 107.649 59.4428 106.317C60.7071 104.984 64.7785 100.837 68.5071 97.0988C74.1214 91.4477 75.2357 90.223 75.1285 89.8577C74.9785 89.428 25.65 39.8795 24.3857 38.9126C23.7 38.3754 22.7785 38.3325 22.0714 38.8267Z" fill="#234363"></path>
<path d="M148.714 59.8192C148.307 60.0985 146.507 61.8604 144.707 63.7298C142.928 65.6206 138.9 69.7461 135.771 72.9476C131.828 76.9656 130.071 78.8994 130.071 79.2218C130.071 79.5655 136.436 86.076 153.664 103.351C173.593 123.334 177.343 126.987 177.836 126.987C178.328 126.987 179.636 125.762 185.7 119.638C189.686 115.599 193.843 111.409 194.914 110.356C196.007 109.282 197.057 108.1 197.25 107.735C197.593 107.112 197.593 107.047 197.25 106.338C196.586 105.027 150.686 59.4539 149.936 59.3465C149.678 59.325 149.121 59.5184 148.714 59.8192Z" fill="#234363"></path>
<path d="M90.0643 69.4883C83.1428 76.45 80.1428 79.6085 80.1428 79.9308C80.1428 80.2531 86.8071 87.0644 102.9 103.158C115.414 115.685 125.85 126.041 126.086 126.17C126.429 126.364 127.714 125.16 136.521 116.308C143.7 109.11 146.571 106.102 146.571 105.758C146.571 105.414 140.293 99.0111 123.836 82.5737C111.343 70.0684 100.993 59.7762 100.864 59.6903C100.714 59.6043 100.479 59.5184 100.307 59.5184C100.136 59.5184 95.5285 64.0091 90.0643 69.4883Z" fill="#234363"></path>
<path d="M21.3214 88.3965C20.5499 88.7403 4.07136 104.984 3.4285 106.059C3.10707 106.574 2.99993 106.983 3.10707 107.369C3.19279 107.735 12.2356 116.974 28.7785 133.583C48.2999 153.179 54.4499 159.217 54.8356 159.217C55.1142 159.217 55.7356 158.916 56.2285 158.529C57.5356 157.541 74.3356 140.523 74.4856 140.029C74.5928 139.707 69.5356 134.529 48.8785 113.858C21.1285 86.076 22.9071 87.709 21.3214 88.3965Z" fill="#234363"></path>
<path d="M72.5356 102.32C67.3499 107.563 62.5714 112.333 61.9071 112.956C60.5999 114.138 59.7856 115.105 59.7856 115.405C59.7856 115.771 78.3214 134.249 79.0499 134.615C79.6499 134.915 79.8642 134.937 80.3999 134.701C81.0856 134.421 83.8714 131.692 94.9928 120.412C100.693 114.632 102.214 112.977 102.214 112.548C102.214 112.097 100.264 110.012 92.7428 102.406C84.4714 94.0476 83.1642 92.8229 82.6071 92.8229C82.0499 92.8014 80.8285 93.9617 72.5356 102.32Z" fill="#234363"></path>
<path d="M150.707 111.387C150.386 111.667 148.221 113.815 145.929 116.157C139.843 122.346 135.086 127.116 133.436 128.663C132.364 129.694 132 130.167 132 130.597C132 131.069 133.2 132.359 138.707 137.752C142.371 141.383 151.521 150.472 158.979 157.949C176.379 175.375 177.493 176.406 178.757 176.406C179.55 176.406 179.936 176.041 189.664 166.05L197.143 158.379V157.434C197.143 156.789 196.993 156.295 196.607 155.758C195.557 154.339 152.079 110.872 151.693 110.872C151.5 110.872 151.05 111.108 150.707 111.387Z" fill="#234363"></path>
<path d="M102.107 121.787C94.9071 128.899 39.5142 184.679 38.1857 186.118C36.8357 187.601 36.7928 188.052 37.8428 189.535C38.6999 190.759 51.6214 203.931 53.7428 205.757C55.2642 207.068 55.9499 207.218 57.0857 206.488C57.4499 206.251 73.3071 190.48 92.3142 171.4C118.05 145.573 126.857 136.613 126.857 136.248C126.857 135.904 126.279 135.216 124.993 134.013C123.986 133.046 121.157 130.253 118.736 127.803C113.036 122.066 107.593 116.888 107.271 116.888C107.143 116.888 104.807 119.101 102.107 121.787Z" fill="#234363"></path>
<path d="M22.2856 139.041C20.807 140.244 4.71413 156.574 4.49985 157.068C4.28556 157.562 4.32842 157.799 4.64985 158.422C5.14271 159.389 21.3213 175.805 22.2213 176.277C22.757 176.535 23.0356 176.578 23.4856 176.406C24.5141 175.998 41.9998 158.164 41.9998 157.52C41.9998 156.939 41.3784 156.23 37.1784 151.911C35.1641 149.849 32.8498 147.442 32.0141 146.561C31.1998 145.68 29.0998 143.532 27.3641 141.77C24.5784 138.998 24.0856 138.59 23.507 138.59C23.1213 138.611 22.5856 138.805 22.2856 139.041Z" fill="#234363"></path>
<path d="M131.893 140.975C131.657 141.061 120.921 151.718 108.064 164.653C86.7428 186.075 84.6428 188.246 84.6428 188.869C84.6428 189.492 85.5214 190.459 93.4714 198.452C103.157 208.207 103.05 208.121 104.421 207.111C104.807 206.853 110.55 201.116 117.214 194.369C123.879 187.644 134.271 177.18 140.314 171.142C146.593 164.825 151.286 159.969 151.286 159.754C151.286 159.346 133.243 141.125 132.643 140.91C132.471 140.846 132.129 140.867 131.893 140.975Z" fill="#234363"></path>
<path d="M150.943 169.531C149.743 170.304 132.643 187.988 132.643 188.46C132.643 189.191 135.214 192.027 142.221 199.01C149.55 206.359 150.171 206.918 150.857 206.918C151.543 206.918 151.971 206.552 156.107 202.341C158.593 199.848 162.579 195.766 164.957 193.316C169.157 188.976 169.286 188.826 169.286 187.966C169.286 187.021 168.686 186.14 166.714 184.142C166.179 183.604 162.814 180.145 159.214 176.449C155.614 172.754 152.421 169.574 152.121 169.423C151.629 169.165 151.5 169.165 150.943 169.531Z" fill="#234363"></path>
</svg><style>@media (prefers-color-scheme: light) { :root { filter: none; } }
@media (prefers-color-scheme: dark) { :root { filter: none; } }
</style></svg>