<svg width="585" height="198" viewBox="0 0 585 198" fill="none" xmlns="http://www.w3.org/2000/svg">
<g clip-path="url(#clip0_227_60)">
<path d="M95.6429 0.690605C94.7 1.27075 91.8286 4.107 77.3429 18.6965C70.85 25.25 64.1 32.0183 62.3429 33.7372C52.1214 43.8145 48.5 47.4888 48.5 47.8111C48.5 48.0045 48.7357 48.5201 49.0143 48.9714C49.6143 49.8953 67.6786 67.9871 68.3643 68.3309C68.9857 68.6532 69.3286 68.3524 76.0357 61.4767C79.1 58.3611 89.3214 48.0259 98.75 38.5503C108.179 29.0531 116.064 20.9526 116.279 20.5444C116.664 19.8138 116.664 19.7709 116.279 19.1477C115.679 18.2023 99.1571 1.5071 98.1286 0.841011C97.0786 0.13195 96.6286 0.088974 95.6429 0.690605Z" fill="#234363"/>
<path d="M46.1214 0.948372C45.2429 1.55 45.5 1.31365 35.15 11.6058C30.5857 16.161 26.8571 19.9427 26.8571 20.0501C26.8571 20.2435 30.4786 24.1541 32.9214 26.5821C33.8857 27.5275 37.2286 30.9009 40.3357 34.038C43.4643 37.1965 46.1857 39.8179 46.4 39.9039C46.6143 39.9683 47.0857 39.8394 47.45 39.6031C48.5214 38.9155 66.5 20.8021 66.65 20.265C66.8 19.6204 66.2857 18.9113 63.5214 16.0106C59.7929 12.0785 48.6286 0.862423 48.2429 0.647556C47.6429 0.325256 46.8714 0.43269 46.1214 0.948372Z" fill="#234363"/>
<path d="M142.786 2.53844C141.907 3.46237 136.4 9.0919 130.571 15.0437C124.743 21.0171 115.764 30.1274 110.621 35.2843C105.457 40.4411 101.193 44.8674 101.129 45.1037C101 45.4475 102.671 47.2309 110.471 55.0306C115.7 60.2734 120.179 64.6781 120.436 64.85C121.164 65.3442 121.721 64.9145 125.857 60.7246C127.914 58.6404 129.714 56.814 129.843 56.6851C129.993 56.5347 135.479 51.0555 142.057 44.4806C155.193 31.3737 163.936 22.4352 164.793 21.2319C165.157 20.7162 165.307 20.308 165.221 19.9642C165.05 19.3411 147.436 1.72194 146.493 1.22775C145.121 0.518684 144.586 0.712059 142.786 2.53844Z" fill="#234363"/>
<path d="M173.429 29.6118C171.971 30.3423 154.143 48.1978 154.143 48.9499C154.143 49.2292 156.35 51.6142 160.421 55.7182C163.85 59.1991 168.2 63.6253 170.064 65.5162C172.786 68.3309 173.557 68.997 174.029 68.997C174.5 69.0185 175.721 67.8797 181.336 62.1857C192.95 50.3895 194.15 48.9499 193.293 47.7251C192.8 47.0161 176.257 30.2994 175.486 29.7192C174.714 29.1606 174.414 29.1391 173.429 29.6118Z" fill="#234363"/>
<path d="M18.0714 29.8267C17.7714 30.0201 17.4286 30.2994 17.3 30.4283C16.1214 31.5241 8.45 39.1519 4.52857 43.127L-0.357143 48.0904V49.1218V50.1317L6.54286 57.1578C22.3571 73.2299 49.3143 100.131 50.15 100.69L51.05 101.27L52.1 100.497C52.6786 100.088 54.1786 98.6488 55.4429 97.3166C56.7072 95.9844 60.7786 91.8375 64.5072 88.0988C70.1214 82.4477 71.2357 81.223 71.1286 80.8577C70.9786 80.428 21.65 30.8795 20.3857 29.9126C19.7 29.3754 18.7786 29.3325 18.0714 29.8267Z" fill="#234363"/>
<path d="M144.714 50.8192C144.307 51.0985 142.507 52.8605 140.707 54.7298C138.929 56.6206 134.9 60.7461 131.771 63.9476C127.829 67.9656 126.071 69.8994 126.071 70.2218C126.071 70.5655 132.436 77.076 149.664 94.3514C169.593 114.334 173.343 117.987 173.836 117.987C174.329 117.987 175.636 116.762 181.7 110.638C185.686 106.599 189.843 102.409 190.914 101.356C192.007 100.282 193.057 99.1 193.25 98.7347C193.593 98.1116 193.593 98.0471 193.25 97.338C192.586 96.0273 146.686 50.4539 145.936 50.3465C145.679 50.325 145.121 50.5184 144.714 50.8192Z" fill="#234363"/>
<path d="M86.0643 60.4883C79.1429 67.45 76.1429 70.6085 76.1429 70.9308C76.1429 71.2531 82.8071 78.0644 98.9 94.158C111.414 106.685 121.85 117.041 122.086 117.17C122.429 117.364 123.714 116.16 132.521 107.308C139.7 100.11 142.571 97.1017 142.571 96.7579C142.571 96.4141 136.293 90.0111 119.836 73.5737C107.343 61.0684 96.9929 50.7762 96.8643 50.6903C96.7143 50.6043 96.4786 50.5184 96.3071 50.5184C96.1357 50.5184 91.5286 55.0091 86.0643 60.4883Z" fill="#234363"/>
<path d="M17.3214 79.3965C16.55 79.7403 0.0714285 95.9843 -0.571429 97.0587C-0.892857 97.5743 -1 97.9826 -0.892857 98.3694C-0.807143 98.7346 8.23571 107.974 24.7786 124.583C44.3 144.179 50.45 150.217 50.8357 150.217C51.1143 150.217 51.7357 149.916 52.2286 149.529C53.5357 148.541 70.3357 131.523 70.4857 131.029C70.5929 130.707 65.5357 125.529 44.8786 104.858C17.1286 77.076 18.9071 78.709 17.3214 79.3965Z" fill="#234363"/>
<path d="M68.5357 93.32C63.35 98.5628 58.5714 103.333 57.9071 103.956C56.6 105.138 55.7857 106.105 55.7857 106.405C55.7857 106.771 74.3214 125.249 75.05 125.615C75.65 125.915 75.8643 125.937 76.4 125.701C77.0857 125.421 79.8714 122.692 90.9929 111.412C96.6928 105.632 98.2143 103.977 98.2143 103.548C98.2143 103.097 96.2643 101.012 88.7429 93.406C80.4714 85.0476 79.1643 83.8229 78.6071 83.8229C78.05 83.8014 76.8286 84.9617 68.5357 93.32Z" fill="#234363"/>
<path d="M146.707 102.387C146.386 102.667 144.221 104.815 141.929 107.157C135.843 113.346 131.086 118.116 129.436 119.663C128.364 120.694 128 121.167 128 121.597C128 122.069 129.2 123.359 134.707 128.752C138.371 132.383 147.521 141.472 154.979 148.949C172.379 166.375 173.493 167.406 174.757 167.406C175.55 167.406 175.936 167.041 185.664 157.05L193.143 149.379V148.434C193.143 147.789 192.993 147.295 192.607 146.758C191.557 145.339 148.079 101.872 147.693 101.872C147.5 101.872 147.05 102.108 146.707 102.387Z" fill="#234363"/>
<path d="M98.1072 112.787C90.9072 119.899 35.5143 175.679 34.1857 177.118C32.8357 178.601 32.7929 179.052 33.8429 180.535C34.7 181.759 47.6214 194.931 49.7429 196.757C51.2643 198.068 51.95 198.218 53.0857 197.488C53.45 197.251 69.3071 181.48 88.3143 162.4C114.05 136.573 122.857 127.613 122.857 127.248C122.857 126.904 122.279 126.216 120.993 125.013C119.986 124.046 117.157 121.253 114.736 118.803C109.036 113.066 103.593 107.888 103.271 107.888C103.143 107.888 100.807 110.101 98.1072 112.787Z" fill="#234363"/>
<path d="M18.2857 130.041C16.8071 131.244 0.714286 147.574 0.5 148.068C0.285714 148.562 0.328571 148.799 0.65 149.422C1.14286 150.389 17.3214 166.805 18.2214 167.277C18.7571 167.535 19.0357 167.578 19.4857 167.406C20.5143 166.998 38 149.164 38 148.52C38 147.939 37.3786 147.23 33.1786 142.911C31.1643 140.849 28.85 138.442 28.0143 137.561C27.2 136.68 25.1 134.532 23.3643 132.77C20.5786 129.998 20.0857 129.59 19.5071 129.59C19.1214 129.611 18.5857 129.805 18.2857 130.041Z" fill="#234363"/>
<path d="M127.893 131.975C127.657 132.061 116.921 142.718 104.064 155.653C82.7429 177.075 80.6429 179.246 80.6429 179.869C80.6429 180.492 81.5214 181.459 89.4714 189.452C99.1571 199.207 99.05 199.121 100.421 198.111C100.807 197.853 106.55 192.116 113.214 185.369C119.879 178.644 130.271 168.18 136.314 162.142C142.593 155.825 147.286 150.969 147.286 150.754C147.286 150.346 129.243 132.125 128.643 131.91C128.471 131.846 128.129 131.867 127.893 131.975Z" fill="#234363"/>
<path d="M146.943 160.531C145.743 161.304 128.643 178.988 128.643 179.46C128.643 180.191 131.214 183.027 138.221 190.01C145.55 197.359 146.171 197.918 146.857 197.918C147.543 197.918 147.971 197.552 152.107 193.341C154.593 190.848 158.579 186.766 160.957 184.316C165.157 179.976 165.286 179.826 165.286 178.966C165.286 178.021 164.686 177.14 162.714 175.142C162.179 174.604 158.814 171.145 155.214 167.449C151.614 163.754 148.421 160.574 148.121 160.423C147.629 160.165 147.5 160.165 146.943 160.531Z" fill="#234363"/>
<path d="M236.64 83V27H271.44V35.48H245.92V51.16H267.76V59.64H245.92V83H236.64ZM294.638 83.96C290.744 83.96 287.278 83.08 284.238 81.32C281.251 79.5067 278.878 77.0267 277.118 73.88C275.411 70.7333 274.558 67.1067 274.558 63C274.558 58.8933 275.438 55.2667 277.198 52.12C278.958 48.9733 281.358 46.52 284.398 44.76C287.491 42.9467 291.011 42.04 294.958 42.04C298.531 42.04 301.758 42.9733 304.638 44.84C307.518 46.6533 309.784 49.2933 311.438 52.76C313.144 56.2267 313.998 60.36 313.998 65.16H282.558L283.758 64.04C283.758 66.4933 284.291 68.6267 285.358 70.44C286.424 72.2 287.838 73.56 289.598 74.52C291.358 75.48 293.304 75.96 295.438 75.96C297.891 75.96 299.918 75.4267 301.518 74.36C303.118 73.24 304.371 71.8 305.278 70.04L313.198 73.4C312.078 75.5333 310.638 77.4 308.878 79C307.171 80.6 305.118 81.8267 302.718 82.68C300.371 83.5333 297.678 83.96 294.638 83.96ZM284.318 59.4L283.038 58.28H305.598L304.398 59.4C304.398 57.2133 303.918 55.4267 302.958 54.04C301.998 52.6 300.771 51.5333 299.278 50.84C297.838 50.0933 296.318 49.72 294.718 49.72C293.118 49.72 291.518 50.0933 289.918 50.84C288.318 51.5333 286.984 52.6 285.918 54.04C284.851 55.4267 284.318 57.2133 284.318 59.4ZM348.14 83L347.74 75.56V27H356.62V83H348.14ZM335.1 83.96C331.473 83.96 328.3 83.1067 325.58 81.4C322.913 79.64 320.807 77.1867 319.26 74.04C317.767 70.8933 317.02 67.2133 317.02 63C317.02 58.7333 317.767 55.0533 319.26 51.96C320.807 48.8133 322.913 46.3867 325.58 44.68C328.3 42.92 331.473 42.04 335.1 42.04C338.46 42.04 341.34 42.92 343.74 44.68C346.193 46.3867 348.06 48.8133 349.34 51.96C350.62 55.0533 351.26 58.7333 351.26 63C351.26 67.2133 350.62 70.8933 349.34 74.04C348.06 77.1867 346.193 79.64 343.74 81.4C341.34 83.1067 338.46 83.96 335.1 83.96ZM337.34 75.8C339.367 75.8 341.153 75.2667 342.7 74.2C344.3 73.08 345.527 71.56 346.38 69.64C347.287 67.72 347.74 65.5067 347.74 63C347.74 60.4933 347.287 58.28 346.38 56.36C345.527 54.44 344.3 52.9467 342.7 51.88C341.153 50.8133 339.34 50.28 337.26 50.28C335.127 50.28 333.233 50.8133 331.58 51.88C329.927 52.9467 328.62 54.44 327.66 56.36C326.753 58.28 326.273 60.4933 326.22 63C326.273 65.5067 326.753 67.72 327.66 69.64C328.62 71.56 329.927 73.08 331.58 74.2C333.287 75.2667 335.207 75.8 337.34 75.8ZM382.766 83.96C378.872 83.96 375.406 83.08 372.366 81.32C369.379 79.5067 367.006 77.0267 365.246 73.88C363.539 70.7333 362.686 67.1067 362.686 63C362.686 58.8933 363.566 55.2667 365.326 52.12C367.086 48.9733 369.486 46.52 372.526 44.76C375.619 42.9467 379.139 42.04 383.086 42.04C386.659 42.04 389.886 42.9733 392.766 44.84C395.646 46.6533 397.912 49.2933 399.566 52.76C401.272 56.2267 402.126 60.36 402.126 65.16H370.686L371.886 64.04C371.886 66.4933 372.419 68.6267 373.486 70.44C374.552 72.2 375.966 73.56 377.726 74.52C379.486 75.48 381.432 75.96 383.566 75.96C386.019 75.96 388.046 75.4267 389.646 74.36C391.246 73.24 392.499 71.8 393.406 70.04L401.326 73.4C400.206 75.5333 398.766 77.4 397.006 79C395.299 80.6 393.246 81.8267 390.846 82.68C388.499 83.5333 385.806 83.96 382.766 83.96ZM372.446 59.4L371.166 58.28H393.726L392.526 59.4C392.526 57.2133 392.046 55.4267 391.086 54.04C390.126 52.6 388.899 51.5333 387.406 50.84C385.966 50.0933 384.446 49.72 382.846 49.72C381.246 49.72 379.646 50.0933 378.046 50.84C376.446 51.5333 375.112 52.6 374.046 54.04C372.979 55.4267 372.446 57.2133 372.446 59.4ZM413.308 61.72C413.308 57.4 414.135 53.8533 415.788 51.08C417.441 48.3067 419.575 46.2533 422.188 44.92C424.855 43.5333 427.628 42.84 430.508 42.84V51.4C428.055 51.4 425.735 51.7467 423.548 52.44C421.415 53.08 419.681 54.1467 418.348 55.64C417.015 57.1333 416.348 59.1067 416.348 61.56L413.308 61.72ZM407.388 83V43H416.348V83H407.388ZM459.251 83L458.851 75.48V62.44C458.851 59.72 458.557 57.4533 457.971 55.64C457.437 53.7733 456.531 52.36 455.251 51.4C454.024 50.3867 452.371 49.88 450.291 49.88C448.371 49.88 446.691 50.28 445.251 51.08C443.811 51.88 442.584 53.1333 441.571 54.84L433.731 51.96C434.584 50.2 435.704 48.5733 437.091 47.08C438.531 45.5333 440.317 44.3067 442.451 43.4C444.637 42.4933 447.251 42.04 450.291 42.04C454.184 42.04 457.437 42.8133 460.051 44.36C462.664 45.8533 464.584 48.0133 465.811 50.84C467.091 53.6667 467.731 57.08 467.731 61.08L467.491 83H459.251ZM447.731 83.96C442.931 83.96 439.197 82.8933 436.531 80.76C433.917 78.6267 432.611 75.6133 432.611 71.72C432.611 67.56 433.997 64.3867 436.771 62.2C439.597 60.0133 443.517 58.92 448.531 58.92H459.251V65.8H451.411C447.837 65.8 445.331 66.3067 443.891 67.32C442.451 68.28 441.731 69.6667 441.731 71.48C441.731 73.0267 442.344 74.2533 443.571 75.16C444.851 76.0133 446.611 76.44 448.851 76.44C450.877 76.44 452.637 75.9867 454.131 75.08C455.624 74.1733 456.771 72.9733 457.571 71.48C458.424 69.9867 458.851 68.3067 458.851 66.44H461.491C461.491 71.88 460.397 76.1733 458.211 79.32C456.024 82.4133 452.531 83.96 447.731 83.96ZM491.124 83.96C486.91 83.96 483.684 82.92 481.444 80.84C479.257 78.7067 478.164 75.6667 478.164 71.72V30.52H487.044V70.04C487.044 71.9067 487.47 73.32 488.324 74.28C489.23 75.24 490.537 75.72 492.244 75.72C492.777 75.72 493.364 75.6133 494.004 75.4C494.644 75.1867 495.364 74.7867 496.164 74.2L499.444 81C498.057 81.96 496.67 82.68 495.284 83.16C493.897 83.6933 492.51 83.96 491.124 83.96ZM471.524 50.68V43H497.844V50.68H471.524ZM522.303 83.96C518.41 83.96 514.943 83.08 511.903 81.32C508.916 79.5067 506.543 77.0267 504.783 73.88C503.076 70.7333 502.223 67.1067 502.223 63C502.223 58.8933 503.103 55.2667 504.863 52.12C506.623 48.9733 509.023 46.52 512.063 44.76C515.156 42.9467 518.676 42.04 522.623 42.04C526.196 42.04 529.423 42.9733 532.303 44.84C535.183 46.6533 537.45 49.2933 539.103 52.76C540.81 56.2267 541.663 60.36 541.663 65.16H510.223L511.423 64.04C511.423 66.4933 511.956 68.6267 513.023 70.44C514.09 72.2 515.503 73.56 517.263 74.52C519.023 75.48 520.97 75.96 523.103 75.96C525.556 75.96 527.583 75.4267 529.183 74.36C530.783 73.24 532.036 71.8 532.943 70.04L540.863 73.4C539.743 75.5333 538.303 77.4 536.543 79C534.836 80.6 532.783 81.8267 530.383 82.68C528.036 83.5333 525.343 83.96 522.303 83.96ZM511.983 59.4L510.703 58.28H533.263L532.063 59.4C532.063 57.2133 531.583 55.4267 530.623 54.04C529.663 52.6 528.436 51.5333 526.943 50.84C525.503 50.0933 523.983 49.72 522.383 49.72C520.783 49.72 519.183 50.0933 517.583 50.84C515.983 51.5333 514.65 52.6 513.583 54.04C512.516 55.4267 511.983 57.2133 511.983 59.4ZM575.806 83L575.406 75.56V27H584.286V83H575.806ZM562.766 83.96C559.139 83.96 555.966 83.1067 553.246 81.4C550.579 79.64 548.472 77.1867 546.926 74.04C545.432 70.8933 544.686 67.2133 544.686 63C544.686 58.7333 545.432 55.0533 546.926 51.96C548.472 48.8133 550.579 46.3867 553.246 44.68C555.966 42.92 559.139 42.04 562.766 42.04C566.126 42.04 569.006 42.92 571.406 44.68C573.859 46.3867 575.726 48.8133 577.006 51.96C578.286 55.0533 578.926 58.7333 578.926 63C578.926 67.2133 578.286 70.8933 577.006 74.04C575.726 77.1867 573.859 79.64 571.406 81.4C569.006 83.1067 566.126 83.96 562.766 83.96ZM565.006 75.8C567.032 75.8 568.819 75.2667 570.366 74.2C571.966 73.08 573.192 71.56 574.046 69.64C574.952 67.72 575.406 65.5067 575.406 63C575.406 60.4933 574.952 58.28 574.046 56.36C573.192 54.44 571.966 52.9467 570.366 51.88C568.819 50.8133 567.006 50.28 564.926 50.28C562.792 50.28 560.899 50.8133 559.246 51.88C557.592 52.9467 556.286 54.44 555.326 56.36C554.419 58.28 553.939 60.4933 553.886 63C553.939 65.5067 554.419 67.72 555.326 69.64C556.286 71.56 557.592 73.08 559.246 74.2C560.952 75.2667 562.872 75.8 565.006 75.8Z" fill="#234363"/>
<path d="M236.806 177V119.6H257.06C260.996 119.6 264.467 120.365 267.474 121.896C270.481 123.427 272.831 125.559 274.526 128.292C276.221 130.971 277.068 134.087 277.068 137.64C277.068 141.193 276.166 144.337 274.362 147.07C272.613 149.803 270.18 151.963 267.064 153.548C263.948 155.079 260.422 155.844 256.486 155.844H246.318V177H236.806ZM268.622 177L255.174 153.712L262.554 148.628L279.364 177H268.622ZM246.318 147.07H257.47C259.329 147.07 260.969 146.66 262.39 145.84C263.866 145.02 265.041 143.899 265.916 142.478C266.845 141.057 267.31 139.444 267.31 137.64C267.31 134.907 266.326 132.665 264.358 130.916C262.39 129.167 259.848 128.292 256.732 128.292H246.318V147.07ZM307.221 177.984C303.23 177.984 299.677 177.082 296.561 175.278C293.5 173.419 291.067 170.877 289.263 167.652C287.514 164.427 286.639 160.709 286.639 156.5C286.639 152.291 287.541 148.573 289.345 145.348C291.149 142.123 293.609 139.608 296.725 137.804C299.896 135.945 303.504 135.016 307.549 135.016C311.212 135.016 314.519 135.973 317.471 137.886C320.423 139.745 322.746 142.451 324.441 146.004C326.19 149.557 327.065 153.794 327.065 158.714H294.839L296.069 157.566C296.069 160.081 296.616 162.267 297.709 164.126C298.802 165.93 300.251 167.324 302.055 168.308C303.859 169.292 305.854 169.784 308.041 169.784C310.556 169.784 312.633 169.237 314.273 168.144C315.913 166.996 317.198 165.52 318.127 163.716L326.245 167.16C325.097 169.347 323.621 171.26 321.817 172.9C320.068 174.54 317.963 175.797 315.503 176.672C313.098 177.547 310.337 177.984 307.221 177.984ZM296.643 152.81L295.331 151.662H318.455L317.225 152.81C317.225 150.569 316.733 148.737 315.749 147.316C314.765 145.84 313.508 144.747 311.977 144.036C310.501 143.271 308.943 142.888 307.303 142.888C305.663 142.888 304.023 143.271 302.383 144.036C300.743 144.747 299.376 145.84 298.283 147.316C297.19 148.737 296.643 150.569 296.643 152.81ZM350.663 177.984C347.93 177.984 345.415 177.574 343.119 176.754C340.823 175.934 338.855 174.786 337.215 173.31C335.575 171.779 334.318 170.003 333.443 167.98L341.397 164.454C342.217 165.985 343.42 167.269 345.005 168.308C346.645 169.347 348.449 169.866 350.417 169.866C352.549 169.866 354.244 169.511 355.501 168.8C356.813 168.035 357.469 166.996 357.469 165.684C357.469 164.427 356.977 163.47 355.993 162.814C355.009 162.103 353.615 161.529 351.811 161.092L347.957 160.026C344.076 159.042 341.042 157.484 338.855 155.352C336.668 153.165 335.575 150.678 335.575 147.89C335.575 143.79 336.887 140.619 339.511 138.378C342.19 136.137 346.016 135.016 350.991 135.016C353.506 135.016 355.802 135.399 357.879 136.164C360.011 136.875 361.842 137.913 363.373 139.28C364.904 140.592 365.97 142.15 366.571 143.954L358.945 147.398C358.398 146.031 357.36 144.993 355.829 144.282C354.298 143.517 352.604 143.134 350.745 143.134C348.886 143.134 347.438 143.544 346.399 144.364C345.36 145.129 344.841 146.223 344.841 147.644C344.841 148.464 345.306 149.229 346.235 149.94C347.164 150.596 348.504 151.143 350.253 151.58L355.091 152.728C357.77 153.384 359.956 154.423 361.651 155.844C363.346 157.211 364.603 158.769 365.423 160.518C366.243 162.213 366.653 163.935 366.653 165.684C366.653 168.144 365.942 170.303 364.521 172.162C363.154 174.021 361.268 175.469 358.863 176.508C356.458 177.492 353.724 177.984 350.663 177.984ZM393.862 177.984C389.872 177.984 386.318 177.082 383.202 175.278C380.141 173.419 377.708 170.877 375.904 167.652C374.155 164.427 373.28 160.709 373.28 156.5C373.28 152.291 374.182 148.573 375.986 145.348C377.79 142.123 380.25 139.608 383.366 137.804C386.537 135.945 390.145 135.016 394.19 135.016C397.853 135.016 401.16 135.973 404.112 137.886C407.064 139.745 409.388 142.451 411.082 146.004C412.832 149.557 413.706 153.794 413.706 158.714H381.48L382.71 157.566C382.71 160.081 383.257 162.267 384.35 164.126C385.444 165.93 386.892 167.324 388.696 168.308C390.5 169.292 392.496 169.784 394.682 169.784C397.197 169.784 399.274 169.237 400.914 168.144C402.554 166.996 403.839 165.52 404.768 163.716L412.886 167.16C411.738 169.347 410.262 171.26 408.458 172.9C406.709 174.54 404.604 175.797 402.144 176.672C399.739 177.547 396.978 177.984 393.862 177.984ZM383.284 152.81L381.972 151.662H405.096L403.866 152.81C403.866 150.569 403.374 148.737 402.39 147.316C401.406 145.84 400.149 144.747 398.618 144.036C397.142 143.271 395.584 142.888 393.944 142.888C392.304 142.888 390.664 143.271 389.024 144.036C387.384 144.747 386.018 145.84 384.924 147.316C383.831 148.737 383.284 150.569 383.284 152.81ZM447.39 177L446.98 169.292V155.926C446.98 153.138 446.68 150.815 446.078 148.956C445.532 147.043 444.602 145.594 443.29 144.61C442.033 143.571 440.338 143.052 438.206 143.052C436.238 143.052 434.516 143.462 433.04 144.282C431.564 145.102 430.307 146.387 429.268 148.136L421.232 145.184C422.107 143.38 423.255 141.713 424.676 140.182C426.152 138.597 427.984 137.339 430.17 136.41C432.412 135.481 435.09 135.016 438.206 135.016C442.197 135.016 445.532 135.809 448.21 137.394C450.889 138.925 452.857 141.139 454.114 144.036C455.426 146.933 456.082 150.432 456.082 154.532L455.836 177H447.39ZM435.582 177.984C430.662 177.984 426.836 176.891 424.102 174.704C421.424 172.517 420.084 169.429 420.084 165.438C420.084 161.174 421.506 157.921 424.348 155.68C427.246 153.439 431.264 152.318 436.402 152.318H447.39V159.37H439.354C435.692 159.37 433.122 159.889 431.646 160.928C430.17 161.912 429.432 163.333 429.432 165.192C429.432 166.777 430.061 168.035 431.318 168.964C432.63 169.839 434.434 170.276 436.73 170.276C438.808 170.276 440.612 169.811 442.142 168.882C443.673 167.953 444.848 166.723 445.668 165.192C446.543 163.661 446.98 161.939 446.98 160.026H449.686C449.686 165.602 448.566 170.003 446.324 173.228C444.083 176.399 440.502 177.984 435.582 177.984ZM473.09 155.188C473.09 150.76 473.938 147.125 475.632 144.282C477.327 141.439 479.514 139.335 482.192 137.968C484.926 136.547 487.768 135.836 490.72 135.836V144.61C488.206 144.61 485.828 144.965 483.586 145.676C481.4 146.332 479.623 147.425 478.256 148.956C476.89 150.487 476.206 152.509 476.206 155.024L473.09 155.188ZM467.022 177V136H476.206V177H467.022ZM517.639 177.984C513.43 177.984 509.713 177.082 506.487 175.278C503.262 173.419 500.72 170.877 498.861 167.652C497.057 164.427 496.155 160.709 496.155 156.5C496.155 152.291 497.057 148.573 498.861 145.348C500.72 142.123 503.235 139.608 506.405 137.804C509.631 135.945 513.321 135.016 517.475 135.016C521.521 135.016 525.183 136 528.463 137.968C531.743 139.881 534.176 142.642 535.761 146.25L527.233 149.53C526.359 147.726 525.019 146.277 523.215 145.184C521.411 144.091 519.361 143.544 517.065 143.544C514.824 143.544 512.829 144.118 511.079 145.266C509.33 146.359 507.963 147.89 506.979 149.858C505.995 151.771 505.503 153.985 505.503 156.5C505.503 159.015 505.995 161.256 506.979 163.224C508.018 165.137 509.412 166.668 511.161 167.816C512.965 168.909 514.988 169.456 517.229 169.456C519.525 169.456 521.575 168.882 523.379 167.734C525.183 166.531 526.523 164.919 527.397 162.896L535.925 166.176C534.34 169.893 531.907 172.791 528.627 174.868C525.402 176.945 521.739 177.984 517.639 177.984ZM544.777 177V119.6H553.961V177H544.777ZM572.575 177V156.008H581.759V177H572.575ZM572.575 156.008C572.575 152.728 572.192 150.213 571.427 148.464C570.662 146.66 569.596 145.403 568.229 144.692C566.917 143.981 565.386 143.626 563.637 143.626C560.521 143.571 558.116 144.583 556.421 146.66C554.781 148.737 553.961 151.717 553.961 155.598H550.435C550.435 151.279 551.064 147.589 552.321 144.528C553.633 141.412 555.464 139.061 557.815 137.476C560.166 135.836 562.954 135.016 566.179 135.016C569.404 135.016 572.192 135.672 574.543 136.984C576.894 138.296 578.67 140.346 579.873 143.134C581.13 145.867 581.759 149.448 581.759 153.876V156.008H572.575Z" fill="#234363"/>
</g>
<defs>
<clipPath id="clip0_227_60">
<rect width="585" height="198" fill="white"/>
</clipPath>
</defs>
</svg>
