<svg width="587" height="199" viewBox="0 0 587 199" fill="none" xmlns="http://www.w3.org/2000/svg">
<g clip-path="url(#clip0_255_24)">
<path d="M237.64 125V69H256.12C259.96 69 263.267 69.5867 266.04 70.76C268.867 71.9333 271.053 73.6933 272.6 76.04C274.147 78.3333 274.92 81.2133 274.92 84.68C274.92 87.08 274.333 89.24 273.16 91.16C272.04 93.08 270.44 94.68 268.36 95.96C271.08 97.2933 273.16 99.08 274.6 101.32C276.04 103.56 276.76 106.227 276.76 109.32C276.76 112.627 276.013 115.453 274.52 117.8C273.027 120.147 270.92 121.933 268.2 123.16C265.48 124.387 262.253 125 258.52 125H237.64ZM246.76 116.68H257.8C260.733 116.68 263.053 115.96 264.76 114.52C266.467 113.08 267.32 111.133 267.32 108.68C267.32 106.013 266.36 103.933 264.44 102.44C262.573 100.947 259.933 100.2 256.52 100.2H246.76V116.68ZM246.76 92.52H256.92C259.587 92.52 261.667 91.8267 263.16 90.44C264.707 89 265.48 87.0267 265.48 84.52C265.48 81.96 264.6 80.0133 262.84 78.68C261.133 77.2933 258.733 76.6 255.64 76.6H246.76V92.52ZM301.184 125.96C297.291 125.96 293.824 125.08 290.784 123.32C287.798 121.507 285.424 119.027 283.664 115.88C281.958 112.733 281.104 109.107 281.104 105C281.104 100.893 281.984 97.2667 283.744 94.12C285.504 90.9733 287.904 88.52 290.944 86.76C294.038 84.9467 297.558 84.04 301.504 84.04C305.078 84.04 308.304 84.9733 311.184 86.84C314.064 88.6533 316.331 91.2933 317.984 94.76C319.691 98.2267 320.544 102.36 320.544 107.16H289.104L290.304 106.04C290.304 108.493 290.838 110.627 291.904 112.44C292.971 114.2 294.384 115.56 296.144 116.52C297.904 117.48 299.851 117.96 301.984 117.96C304.438 117.96 306.464 117.427 308.064 116.36C309.664 115.24 310.918 113.8 311.824 112.04L319.744 115.4C318.624 117.533 317.184 119.4 315.424 121C313.718 122.6 311.664 123.827 309.264 124.68C306.918 125.533 304.224 125.96 301.184 125.96ZM290.864 101.4L289.584 100.28H312.144L310.944 101.4C310.944 99.2133 310.464 97.4267 309.504 96.04C308.544 94.6 307.318 93.5333 305.824 92.84C304.384 92.0933 302.864 91.72 301.264 91.72C299.664 91.72 298.064 92.0933 296.464 92.84C294.864 93.5333 293.531 94.6 292.464 96.04C291.398 97.4267 290.864 99.2133 290.864 101.4ZM350.207 125L349.807 117.48V104.44C349.807 101.72 349.514 99.4533 348.927 97.64C348.394 95.7733 347.487 94.36 346.207 93.4C344.98 92.3867 343.327 91.88 341.247 91.88C339.327 91.88 337.647 92.28 336.207 93.08C334.767 93.88 333.54 95.1333 332.527 96.84L324.687 93.96C325.54 92.2 326.66 90.5733 328.047 89.08C329.487 87.5333 331.274 86.3067 333.407 85.4C335.594 84.4933 338.207 84.04 341.247 84.04C345.14 84.04 348.394 84.8133 351.007 86.36C353.62 87.8533 355.54 90.0133 356.767 92.84C358.047 95.6667 358.687 99.08 358.687 103.08L358.447 125H350.207ZM338.687 125.96C333.887 125.96 330.154 124.893 327.487 122.76C324.874 120.627 323.567 117.613 323.567 113.72C323.567 109.56 324.954 106.387 327.727 104.2C330.554 102.013 334.474 100.92 339.487 100.92H350.207V107.8H342.367C338.794 107.8 336.287 108.307 334.847 109.32C333.407 110.28 332.687 111.667 332.687 113.48C332.687 115.027 333.3 116.253 334.527 117.16C335.807 118.013 337.567 118.44 339.807 118.44C341.834 118.44 343.594 117.987 345.087 117.08C346.58 116.173 347.727 114.973 348.527 113.48C349.38 111.987 349.807 110.307 349.807 108.44H352.447C352.447 113.88 351.354 118.173 349.167 121.32C346.98 124.413 343.487 125.96 338.687 125.96ZM384.88 125.96C380.773 125.96 377.147 125.08 374 123.32C370.853 121.507 368.373 119.027 366.56 115.88C364.8 112.733 363.92 109.107 363.92 105C363.92 100.893 364.8 97.2667 366.56 94.12C368.373 90.9733 370.827 88.52 373.92 86.76C377.067 84.9467 380.667 84.04 384.72 84.04C388.667 84.04 392.24 85 395.44 86.92C398.64 88.7867 401.013 91.48 402.56 95L394.24 98.2C393.387 96.44 392.08 95.0267 390.32 93.96C388.56 92.8933 386.56 92.36 384.32 92.36C382.133 92.36 380.187 92.92 378.48 94.04C376.773 95.1067 375.44 96.6 374.48 98.52C373.52 100.387 373.04 102.547 373.04 105C373.04 107.453 373.52 109.64 374.48 111.56C375.493 113.427 376.853 114.92 378.56 116.04C380.32 117.107 382.293 117.64 384.48 117.64C386.72 117.64 388.72 117.08 390.48 115.96C392.24 114.787 393.547 113.213 394.4 111.24L402.72 114.44C401.173 118.067 398.8 120.893 395.6 122.92C392.453 124.947 388.88 125.96 384.88 125.96ZM426.476 125.96C422.476 125.96 418.902 125.08 415.756 123.32C412.662 121.507 410.236 119.027 408.476 115.88C406.716 112.733 405.836 109.107 405.836 105C405.836 100.893 406.689 97.2667 408.396 94.12C410.156 90.9733 412.582 88.52 415.676 86.76C418.769 84.9467 422.316 84.04 426.316 84.04C430.316 84.04 433.862 84.9467 436.956 86.76C440.049 88.52 442.449 90.9733 444.156 94.12C445.916 97.2667 446.796 100.893 446.796 105C446.796 109.107 445.942 112.733 444.236 115.88C442.529 119.027 440.129 121.507 437.036 123.32C433.942 125.08 430.422 125.96 426.476 125.96ZM426.476 117.72C428.662 117.72 430.609 117.187 432.316 116.12C434.022 115 435.356 113.507 436.316 111.64C437.276 109.72 437.756 107.507 437.756 105C437.756 102.493 437.249 100.307 436.236 98.44C435.276 96.52 433.942 95.0267 432.236 93.96C430.529 92.84 428.556 92.28 426.316 92.28C424.076 92.28 422.102 92.8133 420.396 93.88C418.689 94.9467 417.356 96.44 416.396 98.36C415.436 100.28 414.956 102.493 414.956 105C414.956 107.507 415.436 109.72 416.396 111.64C417.409 113.507 418.769 115 420.476 116.12C422.236 117.187 424.236 117.72 426.476 117.72ZM452.96 125V85H461.36L461.92 92.36V125H452.96ZM480.08 125V104.52H489.04V125H480.08ZM480.08 104.52C480.08 101.32 479.707 98.8667 478.96 97.16C478.267 95.4 477.253 94.1733 475.92 93.48C474.64 92.7867 473.12 92.44 471.36 92.44C468.373 92.3867 466.053 93.3733 464.4 95.4C462.747 97.4267 461.92 100.333 461.92 104.12H458.56C458.56 99.9067 459.173 96.3067 460.4 93.32C461.627 90.28 463.387 87.9867 465.68 86.44C467.973 84.84 470.693 84.04 473.84 84.04C477.04 84.04 479.76 84.68 482 85.96C484.293 87.24 486.027 89.24 487.2 91.96C488.427 94.6267 489.04 98.12 489.04 102.44V104.52H480.08Z" fill="#234363"/>
<path d="M96.6429 0.690605C95.7 1.27075 92.8286 4.107 78.3429 18.6965C71.85 25.25 65.1 32.0183 63.3429 33.7372C53.1214 43.8145 49.5 47.4888 49.5 47.8111C49.5 48.0045 49.7357 48.5201 50.0143 48.9714C50.6143 49.8953 68.6786 67.9871 69.3643 68.3309C69.9857 68.6532 70.3286 68.3524 77.0357 61.4767C80.1 58.3611 90.3214 48.0259 99.75 38.5503C109.179 29.0531 117.064 20.9526 117.279 20.5444C117.664 19.8138 117.664 19.7709 117.279 19.1477C116.679 18.2023 100.157 1.5071 99.1286 0.841011C98.0786 0.13195 97.6286 0.088974 96.6429 0.690605Z" fill="#234363"/>
<path d="M47.1215 0.948372C46.2429 1.55 46.5 1.31365 36.15 11.6058C31.5857 16.161 27.8572 19.9427 27.8572 20.0501C27.8572 20.2435 31.4786 24.1541 33.9215 26.5821C34.8857 27.5275 38.2286 30.9009 41.3357 34.038C44.4643 37.1965 47.1857 39.8179 47.4 39.9039C47.6143 39.9683 48.0857 39.8394 48.45 39.6031C49.5215 38.9155 67.5 20.8021 67.65 20.265C67.8 19.6204 67.2857 18.9113 64.5215 16.0106C60.7929 12.0785 49.6286 0.862423 49.2429 0.647556C48.6429 0.325256 47.8715 0.43269 47.1215 0.948372Z" fill="#234363"/>
<g style="mix-blend-mode:darken">
<path d="M143.786 2.53844C142.907 3.46237 137.4 9.0919 131.571 15.0437C125.743 21.0171 116.764 30.1274 111.621 35.2843C106.457 40.4411 102.193 44.8674 102.129 45.1037C102 45.4475 103.671 47.2309 111.471 55.0306C116.7 60.2734 121.179 64.6781 121.436 64.85C122.164 65.3442 122.721 64.9145 126.857 60.7246C128.914 58.6404 130.714 56.814 130.843 56.6851C130.993 56.5347 136.479 51.0555 143.057 44.4806C156.193 31.3737 164.936 22.4352 165.793 21.2319C166.157 20.7162 166.307 20.308 166.221 19.9642C166.05 19.3411 148.436 1.72194 147.493 1.22775C146.121 0.518684 145.586 0.712059 143.786 2.53844Z" fill="#8CC63E"/>
</g>
<path d="M174.429 29.6118C172.971 30.3423 155.143 48.1978 155.143 48.9499C155.143 49.2292 157.35 51.6142 161.421 55.7182C164.85 59.1991 169.2 63.6253 171.064 65.5162C173.786 68.3309 174.557 68.997 175.029 68.997C175.5 69.0185 176.721 67.8797 182.336 62.1857C193.95 50.3895 195.15 48.9499 194.293 47.7251C193.8 47.0161 177.257 30.2994 176.486 29.7192C175.714 29.1606 175.414 29.1391 174.429 29.6118Z" fill="#234363"/>
<path d="M19.0714 29.8267C18.7714 30.0201 18.4285 30.2994 18.3 30.4283C17.1214 31.5241 9.44997 39.1519 5.52854 43.127L0.642822 48.0904V49.1218V50.1317L7.54282 57.1578C23.3571 73.2299 50.3143 100.131 51.15 100.69L52.05 101.27L53.1 100.497C53.6785 100.088 55.1785 98.6488 56.4428 97.3166C57.7071 95.9844 61.7785 91.8375 65.5071 88.0988C71.1214 82.4477 72.2357 81.223 72.1285 80.8577C71.9785 80.428 22.65 30.8795 21.3857 29.9126C20.7 29.3754 19.7785 29.3325 19.0714 29.8267Z" fill="#234363"/>
<path d="M145.714 50.8192C145.307 51.0985 143.507 52.8605 141.707 54.7298C139.928 56.6206 135.9 60.7461 132.771 63.9476C128.828 67.9656 127.071 69.8994 127.071 70.2218C127.071 70.5655 133.436 77.076 150.664 94.3514C170.593 114.334 174.343 117.987 174.836 117.987C175.328 117.987 176.636 116.762 182.7 110.638C186.686 106.599 190.843 102.409 191.914 101.356C193.007 100.282 194.057 99.1 194.25 98.7347C194.593 98.1116 194.593 98.0471 194.25 97.338C193.586 96.0273 147.686 50.4539 146.936 50.3465C146.678 50.325 146.121 50.5184 145.714 50.8192Z" fill="#234363"/>
<path d="M87.0643 60.4883C80.1428 67.45 77.1428 70.6085 77.1428 70.9308C77.1428 71.2531 83.8071 78.0644 99.9 94.158C112.414 106.685 122.85 117.041 123.086 117.17C123.429 117.364 124.714 116.16 133.521 107.308C140.7 100.11 143.571 97.1017 143.571 96.7579C143.571 96.4141 137.293 90.0111 120.836 73.5737C108.343 61.0684 97.9928 50.7762 97.8643 50.6903C97.7143 50.6043 97.4785 50.5184 97.3071 50.5184C97.1357 50.5184 92.5285 55.0091 87.0643 60.4883Z" fill="#8CC63E"/>
<path d="M18.3214 79.3965C17.5499 79.7403 1.07136 95.9843 0.428502 97.0587C0.107073 97.5743 -6.97598e-05 97.9826 0.107073 98.3694C0.192787 98.7346 9.23564 107.974 25.7785 124.583C45.2999 144.179 51.4499 150.217 51.8356 150.217C52.1142 150.217 52.7356 149.916 53.2285 149.529C54.5356 148.541 71.3356 131.523 71.4856 131.029C71.5928 130.707 66.5356 125.529 45.8785 104.858C18.1285 77.076 19.9071 78.709 18.3214 79.3965Z" fill="#234363"/>
<path d="M69.5356 93.32C64.3499 98.5628 59.5714 103.333 58.9071 103.956C57.5999 105.138 56.7856 106.105 56.7856 106.405C56.7856 106.771 75.3214 125.249 76.0499 125.615C76.6499 125.915 76.8642 125.937 77.3999 125.701C78.0856 125.421 80.8714 122.692 91.9928 111.412C97.6928 105.632 99.2142 103.977 99.2142 103.548C99.2142 103.097 97.2642 101.012 89.7428 93.406C81.4714 85.0476 80.1642 83.8229 79.6071 83.8229C79.0499 83.8014 77.8285 84.9617 69.5356 93.32Z" fill="#234363"/>
<path d="M147.707 102.387C147.386 102.667 145.221 104.815 142.929 107.157C136.843 113.346 132.086 118.116 130.436 119.663C129.364 120.694 129 121.167 129 121.597C129 122.069 130.2 123.359 135.707 128.752C139.371 132.383 148.521 141.472 155.979 148.949C173.379 166.375 174.493 167.406 175.757 167.406C176.55 167.406 176.936 167.041 186.664 157.05L194.143 149.379V148.434C194.143 147.789 193.993 147.295 193.607 146.758C192.557 145.339 149.079 101.872 148.693 101.872C148.5 101.872 148.05 102.108 147.707 102.387Z" fill="#234363"/>
<path d="M99.1071 112.787C91.9071 119.899 36.5142 175.679 35.1857 177.118C33.8357 178.601 33.7928 179.052 34.8428 180.535C35.6999 181.759 48.6214 194.931 50.7428 196.757C52.2642 198.068 52.9499 198.218 54.0857 197.488C54.4499 197.251 70.3071 181.48 89.3142 162.4C115.05 136.573 123.857 127.613 123.857 127.248C123.857 126.904 123.279 126.216 121.993 125.013C120.986 124.046 118.157 121.253 115.736 118.803C110.036 113.066 104.593 107.888 104.271 107.888C104.143 107.888 101.807 110.101 99.1071 112.787Z" fill="#8CC63E"/>
<path d="M19.2856 130.041C17.807 131.244 1.71413 147.574 1.49985 148.068C1.28556 148.562 1.32842 148.799 1.64985 149.422C2.14271 150.389 18.3213 166.805 19.2213 167.277C19.757 167.535 20.0356 167.578 20.4856 167.406C21.5141 166.998 38.9998 149.164 38.9998 148.52C38.9998 147.939 38.3784 147.23 34.1784 142.911C32.1641 140.849 29.8498 138.442 29.0141 137.561C28.1998 136.68 26.0998 134.532 24.3641 132.77C21.5784 129.998 21.0856 129.59 20.507 129.59C20.1213 129.611 19.5856 129.805 19.2856 130.041Z" fill="#234363"/>
<path d="M128.893 131.975C128.657 132.061 117.921 142.718 105.064 155.653C83.7428 177.075 81.6428 179.246 81.6428 179.869C81.6428 180.492 82.5214 181.459 90.4714 189.452C100.157 199.207 100.05 199.121 101.421 198.111C101.807 197.853 107.55 192.116 114.214 185.369C120.879 178.644 131.271 168.18 137.314 162.142C143.593 155.825 148.286 150.969 148.286 150.754C148.286 150.346 130.243 132.125 129.643 131.91C129.471 131.846 129.129 131.867 128.893 131.975Z" fill="#234363"/>
<path d="M147.943 160.531C146.743 161.304 129.643 178.988 129.643 179.46C129.643 180.191 132.214 183.027 139.221 190.01C146.55 197.359 147.171 197.918 147.857 197.918C148.543 197.918 148.971 197.552 153.107 193.341C155.593 190.848 159.579 186.766 161.957 184.316C166.157 179.976 166.286 179.826 166.286 178.966C166.286 178.021 165.686 177.14 163.714 175.142C163.179 174.604 159.814 171.145 156.214 167.449C152.614 163.754 149.421 160.574 149.121 160.423C148.629 160.165 148.5 160.165 147.943 160.531Z" fill="#234363"/>
</g>
<defs>
<clipPath id="clip0_255_24">
<rect width="587" height="199" fill="white"/>
</clipPath>
</defs>
</svg>
